# Blender v2.76 (sub 0) OBJ File: ''
# www.blender.org
mtllib corner.mtl
o SketchUp.001_ID10.001
v 0.001295 -0.000000 0.055609
v 0.000000 -0.000000 0.999364
v 0.000000 -0.000000 0.004738
v 0.048491 -0.000000 0.312360
v 0.160532 -0.000000 0.548146
v 0.329780 -0.000000 0.746900
v 0.544703 -0.000000 0.895077
v 0.790654 -0.000000 0.982579
v 1.000000 -0.000000 0.999364
vn -0.000000 -1.000000 -0.000000
usemtl base
f 1//1 2//1 3//1
f 2//1 1//1 4//1
f 2//1 4//1 5//1
f 2//1 5//1 6//1
f 2//1 6//1 7//1
f 2//1 7//1 8//1
f 2//1 8//1 9//1
o SketchUp_ID2.001
v 1.000000 1.000000 0.004738
v 0.790654 -0.000000 0.982579
v 0.544703 -0.000000 0.895077
v 0.544703 -0.000000 0.895077
v 0.790654 -0.000000 0.982579
v 1.000000 1.000000 0.004738
v 1.000000 1.000000 0.004738
v 0.544703 -0.000000 0.895077
v 0.329780 -0.000000 0.746900
v 0.329780 -0.000000 0.746900
v 0.544703 -0.000000 0.895077
v 1.000000 1.000000 0.004738
v 1.000000 1.000000 0.004738
v 1.000000 -0.000000 0.999364
v 0.790654 -0.000000 0.982579
v 0.790654 -0.000000 0.982579
v 1.000000 -0.000000 0.999364
v 1.000000 1.000000 0.004738
v 1.000000 -0.000000 0.004738
v 0.001295 -0.000000 0.055609
v 0.000000 -0.000000 0.004738
v 0.048491 -0.000000 0.312360
v 0.160532 -0.000000 0.548146
v 0.329780 -0.000000 0.746900
v 0.544703 -0.000000 0.895077
v 0.790654 -0.000000 0.982579
v 1.000000 -0.000000 0.999364
v 1.000000 -0.000000 0.999364
v 1.000000 -0.000000 0.004738
v 0.790654 -0.000000 0.982579
v 0.544703 -0.000000 0.895077
v 0.329780 -0.000000 0.746900
v 0.160532 -0.000000 0.548146
v 0.048491 -0.000000 0.312360
v 0.001295 -0.000000 0.055609
v 0.000000 -0.000000 0.004738
v 1.000000 1.000000 0.004738
v 0.329780 -0.000000 0.746900
v 0.160532 -0.000000 0.548146
v 0.160532 -0.000000 0.548146
v 0.329780 -0.000000 0.746900
v 1.000000 1.000000 0.004738
v 1.000000 1.000000 0.004738
v 0.160532 -0.000000 0.548146
v 0.048491 -0.000000 0.312360
v 0.048491 -0.000000 0.312360
v 0.160532 -0.000000 0.548146
v 1.000000 1.000000 0.004738
v 1.000000 1.000000 0.004738
v 0.048491 -0.000000 0.312360
v 0.001295 -0.000000 0.055609
v 0.001295 -0.000000 0.055609
v 0.048491 -0.000000 0.312360
v 1.000000 1.000000 0.004738
v 1.000000 1.000000 0.004738
v 0.001295 -0.000000 0.055609
v 0.000000 -0.000000 0.004738
v 0.000000 -0.000000 0.004738
v 0.001295 -0.000000 0.055609
v 1.000000 1.000000 0.004738
vn 0.238000 -0.704100 -0.669100
vn -0.238000 0.704100 0.669100
vn 0.403100 -0.704100 -0.584700
vn -0.403100 0.704100 0.584700
vn 0.056800 -0.704100 -0.707900
vn -0.056800 0.704100 0.707900
vn -0.000000 -1.000000 -0.000000
vn 0.000000 1.000000 0.000000
vn 0.540700 -0.704100 -0.460400
vn -0.540700 0.704100 0.460400
vn 0.641400 -0.704100 -0.304800
vn -0.641400 0.704100 0.304800
vn 0.698400 -0.704100 -0.128400
vn -0.698400 0.704100 0.128400
vn 0.707000 -0.707000 -0.018000
vn -0.707000 0.707000 0.018000
usemtl base
f 10//2 11//2 12//2
f 13//3 14//3 15//3
f 16//4 17//4 18//4
f 19//5 20//5 21//5
f 22//6 23//6 24//6
f 25//7 26//7 27//7
f 28//8 29//8 30//8
f 29//8 28//8 31//8
f 31//8 28//8 32//8
f 32//8 28//8 33//8
f 33//8 28//8 34//8
f 34//8 28//8 35//8
f 35//8 28//8 36//8
f 37//9 38//9 39//9
f 39//9 38//9 40//9
f 40//9 38//9 41//9
f 41//9 38//9 42//9
f 42//9 38//9 43//9
f 43//9 38//9 44//9
f 45//9 44//9 38//9
f 46//10 47//10 48//10
f 49//11 50//11 51//11
f 52//12 53//12 54//12
f 55//13 56//13 57//13
f 58//14 59//14 60//14
f 61//15 62//15 63//15
f 64//16 65//16 66//16
f 67//17 68//17 69//17
o SketchUp.002_ID18
v 1.000000 -0.000000 0.064684
v 0.000000 -0.000000 0.070057
v 0.000000 -0.000000 0.064684
v 1.000000 -0.000000 0.070057
vn 0.000000 -1.000000 -0.000000
usemtl base
f 70//18 71//18 72//18
f 71//18 70//18 73//18
