# Blender v2.76 (sub 0) OBJ File: ''
# www.blender.org
mtllib crystal.mtl
o SketchUp_ID2
v 0.716369 0.087723 0.509385
v 0.739588 0.014368 0.593237
v 0.721851 0.070406 0.593237
v 0.745070 -0.002949 0.509385
v 0.730720 0.042387 0.457561
v 0.878444 0.139024 0.509385
v 0.730720 0.042387 0.457561
v 0.716369 0.087723 0.509385
v 0.892794 0.093688 0.457561
v 0.892794 0.093688 0.457561
v 0.745070 -0.002949 0.509385
v 0.730720 0.042387 0.457561
v 0.907144 0.048352 0.509385
v 0.745070 -0.002949 0.509385
v 0.901663 0.065669 0.593237
v 0.739588 0.014368 0.593237
v 0.907144 0.048352 0.509385
v 0.901663 0.065669 0.593237
v 0.721851 0.070406 0.593237
v 0.739588 0.014368 0.593237
v 0.883926 0.121707 0.593237
v 0.721851 0.070406 0.593237
v 0.878444 0.139024 0.509385
v 0.716369 0.087723 0.509385
v 0.883926 0.121707 0.593237
v 0.997666 0.126883 0.561208
v 0.892794 0.093688 0.457561
v 0.878444 0.139024 0.509385
v 0.892794 0.093688 0.457561
v 0.997666 0.126883 0.561208
v 0.907144 0.048352 0.509385
v 0.997666 0.126883 0.561208
v 0.901663 0.065669 0.593237
v 0.907144 0.048352 0.509385
v 0.997666 0.126883 0.561208
v 0.883926 0.121707 0.593237
v 0.901663 0.065669 0.593237
v 0.997666 0.126883 0.561208
v 0.878444 0.139024 0.509385
v 0.883926 0.121707 0.593237
v 0.053843 0.372158 0.628179
v 0.297565 0.032770 0.333978
v 0.222687 -0.026796 0.378525
v 0.128722 0.431724 0.583633
v 0.091282 0.401941 0.605906
v 0.297565 0.032770 0.333978
v 0.225937 -0.084699 0.473254
v 0.222687 -0.026796 0.378525
v 0.304870 -0.097338 0.546833
v 0.394189 0.049144 0.373159
v 0.400046 -0.055194 0.543855
v 0.439797 0.009996 0.466563
v 0.053843 0.372158 0.628179
v 0.225937 -0.084699 0.473254
v 0.057094 0.314255 0.722908
v 0.222687 -0.026796 0.378525
v 0.091282 0.401941 0.605906
v 0.053843 0.372158 0.628179
v 0.103568 0.502031 0.774711
v 0.128722 0.431724 0.583633
v 0.091282 0.401941 0.605906
v 0.103568 0.502031 0.774711
v 0.128722 0.431724 0.583633
v 0.394189 0.049144 0.373159
v 0.297565 0.032770 0.333978
v 0.225345 0.448098 0.622814
v 0.439797 0.009996 0.466563
v 0.248149 0.428524 0.669516
v 0.270953 0.408950 0.716218
v 0.225345 0.448098 0.622814
v 0.394189 0.049144 0.373159
v 0.400046 -0.055194 0.543855
v 0.270953 0.408950 0.716218
v 0.231203 0.343760 0.793510
v 0.439797 0.009996 0.466563
v 0.400046 -0.055194 0.543855
v 0.136026 0.301617 0.796487
v 0.304870 -0.097338 0.546833
v 0.231203 0.343760 0.793510
v 0.057094 0.314255 0.722908
v 0.304870 -0.097338 0.546833
v 0.136026 0.301617 0.796487
v 0.225937 -0.084699 0.473254
v 0.053843 0.372158 0.628179
v 0.057094 0.314255 0.722908
v 0.103568 0.502031 0.774711
v 0.225345 0.448098 0.622814
v 0.128722 0.431724 0.583633
v 0.103568 0.502031 0.774711
v 0.248149 0.428524 0.669516
v 0.225345 0.448098 0.622814
v 0.103568 0.502031 0.774711
v 0.270953 0.408950 0.716218
v 0.248149 0.428524 0.669516
v 0.103568 0.502031 0.774711
v 0.103568 0.502031 0.774711
v 0.231203 0.343760 0.793510
v 0.270953 0.408950 0.716218
v 0.103568 0.502031 0.774711
v 0.136026 0.301617 0.796487
v 0.231203 0.343760 0.793510
v 0.103568 0.502031 0.774711
v 0.057094 0.314255 0.722908
v 0.136026 0.301617 0.796487
v 0.389582 -0.044566 0.306338
v 0.508746 0.063813 0.516614
v 0.388200 0.027593 0.445539
v 0.511509 -0.080504 0.238212
v 0.630673 0.027875 0.448488
v 0.632055 -0.044284 0.309287
v 0.513518 0.310135 0.035735
v 0.632055 -0.044284 0.309287
v 0.511509 -0.080504 0.238212
v 0.634063 0.346355 0.106810
v 0.632055 -0.044284 0.309287
v 0.632682 0.418513 0.246010
v 0.630673 0.027875 0.448488
v 0.634063 0.346355 0.106810
v 0.632682 0.418513 0.246010
v 0.508746 0.063813 0.516614
v 0.630673 0.027875 0.448488
v 0.510755 0.454452 0.314136
v 0.508746 0.063813 0.516614
v 0.390209 0.418232 0.243061
v 0.388200 0.027593 0.445539
v 0.510755 0.454452 0.314136
v 0.390209 0.418232 0.243061
v 0.389582 -0.044566 0.306338
v 0.388200 0.027593 0.445539
v 0.391591 0.346073 0.103860
v 0.389582 -0.044566 0.306338
v 0.513518 0.310135 0.035735
v 0.511509 -0.080504 0.238212
v 0.391591 0.346073 0.103860
v 0.513369 0.622003 0.050687
v 0.634063 0.346355 0.106810
v 0.513518 0.310135 0.035735
v 0.513369 0.622003 0.050687
v 0.632682 0.418513 0.246010
v 0.634063 0.346355 0.106810
v 0.632682 0.418513 0.246010
v 0.513369 0.622003 0.050687
v 0.510755 0.454452 0.314136
v 0.513369 0.622003 0.050687
v 0.390209 0.418232 0.243061
v 0.510755 0.454452 0.314136
v 0.513369 0.622003 0.050687
v 0.391591 0.346073 0.103860
v 0.390209 0.418232 0.243061
v 0.513369 0.622003 0.050687
v 0.513518 0.310135 0.035735
v 0.391591 0.346073 0.103860
v 0.171602 0.888251 0.525016
v 0.043951 0.562195 0.569016
v 0.230299 0.601936 0.654515
v 0.413817 -0.122509 0.591258
v 0.043951 0.562195 0.569016
v 0.227469 -0.162249 0.505760
v 0.230299 0.601936 0.654515
v 0.171602 0.888251 0.525016
v 0.230299 0.601936 0.654515
v 0.426464 0.657533 0.586899
v 0.053767 0.578051 0.415902
v 0.043951 0.562195 0.569016
v 0.171602 0.888251 0.525016
v 0.237286 -0.146393 0.352646
v 0.413817 -0.122509 0.591258
v 0.227469 -0.162249 0.505760
v 0.433451 -0.090796 0.285031
v 0.609982 -0.066912 0.523643
v 0.619799 -0.051055 0.370530
v 0.609982 -0.066912 0.523643
v 0.230299 0.601936 0.654515
v 0.413817 -0.122509 0.591258
v 0.426464 0.657533 0.586899
v 0.053767 0.578051 0.415902
v 0.227469 -0.162249 0.505760
v 0.043951 0.562195 0.569016
v 0.237286 -0.146393 0.352646
v 0.436280 0.673389 0.433786
v 0.171602 0.888251 0.525016
v 0.426464 0.657533 0.586899
v 0.171602 0.888251 0.525016
v 0.249932 0.633648 0.348287
v 0.053767 0.578051 0.415902
v 0.609982 -0.066912 0.523643
v 0.436280 0.673389 0.433786
v 0.426464 0.657533 0.586899
v 0.619799 -0.051055 0.370530
v 0.053767 0.578051 0.415902
v 0.433451 -0.090796 0.285031
v 0.237286 -0.146393 0.352646
v 0.249932 0.633648 0.348287
v 0.249932 0.633648 0.348287
v 0.619799 -0.051055 0.370530
v 0.433451 -0.090796 0.285031
v 0.436280 0.673389 0.433786
v 0.171602 0.888251 0.525016
v 0.436280 0.673389 0.433786
v 0.249932 0.633648 0.348287
v 0.843974 0.948768 0.537817
v 0.887744 0.647578 0.408524
v 0.667284 0.695015 0.420501
v 0.667284 0.695015 0.420501
v 0.603802 0.677457 0.634575
v 0.843974 0.948768 0.537817
v 0.887744 0.647578 0.408524
v 0.843974 0.948768 0.537817
v 0.960514 0.600702 0.615196
v 0.486164 -0.116363 0.300243
v 0.887744 0.647578 0.408524
v 0.706624 -0.163800 0.288267
v 0.667284 0.695015 0.420501
v 0.843974 0.948768 0.537817
v 0.603802 0.677457 0.634575
v 0.785028 0.619168 0.754904
v 0.667284 0.695015 0.420501
v 0.422682 -0.133921 0.514318
v 0.603802 0.677457 0.634575
v 0.486164 -0.116363 0.300243
v 0.779395 -0.210676 0.494939
v 0.887744 0.647578 0.408524
v 0.960514 0.600702 0.615196
v 0.706624 -0.163800 0.288267
v 0.843974 0.948768 0.537817
v 0.785028 0.619168 0.754904
v 0.960514 0.600702 0.615196
v 0.486164 -0.116363 0.300243
v 0.603909 -0.192209 0.634646
v 0.422682 -0.133921 0.514318
v 0.706624 -0.163800 0.288267
v 0.779395 -0.210676 0.494939
v 0.785028 0.619168 0.754904
v 0.422682 -0.133921 0.514318
v 0.603909 -0.192209 0.634646
v 0.603802 0.677457 0.634575
v 0.960514 0.600702 0.615196
v 0.603909 -0.192209 0.634646
v 0.779395 -0.210676 0.494939
v 0.785028 0.619168 0.754904
v 0.443598 0.553253 0.971946
v 0.389498 0.395561 0.896354
v 0.487164 0.373091 0.950132
v 0.487164 0.373091 0.950132
v 0.429709 -0.080753 0.624310
v 0.527375 -0.103223 0.678088
v 0.389498 0.395561 0.896354
v 0.443598 0.553253 0.971946
v 0.487164 0.373091 0.950132
v 0.563674 0.422967 0.874114
v 0.405647 0.459324 0.787100
v 0.389498 0.395561 0.896354
v 0.443598 0.553253 0.971946
v 0.445858 -0.016990 0.515056
v 0.527375 -0.103223 0.678088
v 0.429709 -0.080753 0.624310
v 0.553505 -0.000052 0.501311
v 0.603885 -0.053347 0.602070
v 0.527375 -0.103223 0.678088
v 0.563674 0.422967 0.874114
v 0.487164 0.373091 0.950132
v 0.603885 -0.053347 0.602070
v 0.405647 0.459324 0.787100
v 0.429709 -0.080753 0.624310
v 0.389498 0.395561 0.896354
v 0.445858 -0.016990 0.515056
v 0.513294 0.476262 0.773355
v 0.443598 0.553253 0.971946
v 0.563674 0.422967 0.874114
v 0.513294 0.476262 0.773355
v 0.405647 0.459324 0.787100
v 0.443598 0.553253 0.971946
v 0.405647 0.459324 0.787100
v 0.553505 -0.000052 0.501311
v 0.445858 -0.016990 0.515056
v 0.513294 0.476262 0.773355
v 0.603885 -0.053347 0.602070
v 0.513294 0.476262 0.773355
v 0.563674 0.422967 0.874114
v 0.553505 -0.000052 0.501311
v 0.493572 0.335211 0.218732
v 0.493572 0.335211 0.305334
v 0.463322 0.335211 0.262033
v 0.554071 0.335211 0.218732
v 0.554071 0.335211 0.305334
v 0.584322 0.335211 0.262033
v 0.493572 0.595211 0.218732
v 0.554071 0.335211 0.218732
v 0.493572 0.335211 0.218732
v 0.554071 0.595211 0.218732
v 0.554071 0.335211 0.218732
v 0.584322 0.595211 0.262033
v 0.584322 0.335211 0.262033
v 0.554071 0.595211 0.218732
v 0.584322 0.335211 0.262033
v 0.554071 0.595211 0.305334
v 0.554071 0.335211 0.305334
v 0.584322 0.595211 0.262033
v 0.554071 0.595211 0.305334
v 0.493572 0.335211 0.305334
v 0.554071 0.335211 0.305334
v 0.493572 0.595211 0.305334
v 0.463322 0.595211 0.262033
v 0.493572 0.335211 0.305334
v 0.493572 0.595211 0.305334
v 0.463322 0.335211 0.262033
v 0.493572 0.595211 0.218732
v 0.463322 0.335211 0.262033
v 0.463322 0.595211 0.262033
v 0.493572 0.335211 0.218732
v 0.523822 0.640211 0.262033
v 0.554071 0.595211 0.218732
v 0.493572 0.595211 0.218732
v 0.584322 0.595211 0.262033
v 0.554071 0.595211 0.218732
v 0.523822 0.640211 0.262033
v 0.584322 0.595211 0.262033
v 0.523822 0.640211 0.262033
v 0.554071 0.595211 0.305334
v 0.523822 0.640211 0.262033
v 0.493572 0.595211 0.305334
v 0.554071 0.595211 0.305334
v 0.523822 0.640211 0.262033
v 0.463322 0.595211 0.262033
v 0.493572 0.595211 0.305334
v 0.523822 0.640211 0.262033
v 0.493572 0.595211 0.218732
v 0.463322 0.595211 0.262033
v 0.282977 0.296198 0.181449
v 0.195517 0.309438 0.106286
v 0.194281 0.239111 0.222870
v 0.487488 0.105975 0.357207
v 0.194281 0.239111 0.222870
v 0.398791 0.048888 0.398627
v 0.282977 0.296198 0.181449
v 0.298426 0.257895 0.122017
v 0.195517 0.309438 0.106286
v 0.282977 0.296198 0.181449
v 0.195517 0.309438 0.106286
v 0.154913 0.165525 0.189037
v 0.194281 0.239111 0.222870
v 0.359423 -0.024697 0.364794
v 0.487488 0.105975 0.357207
v 0.398791 0.048888 0.398627
v 0.423789 -0.013088 0.302464
v 0.502937 0.067672 0.297774
v 0.502937 0.067672 0.297774
v 0.282977 0.296198 0.181449
v 0.487488 0.105975 0.357207
v 0.298426 0.257895 0.122017
v 0.398791 0.048888 0.398627
v 0.154913 0.165525 0.189037
v 0.359423 -0.024697 0.364794
v 0.194281 0.239111 0.222870
v 0.195517 0.309438 0.106286
v 0.298426 0.257895 0.122017
v 0.219278 0.177135 0.126706
v 0.195517 0.309438 0.106286
v 0.219278 0.177135 0.126706
v 0.154913 0.165525 0.189037
v 0.219278 0.177135 0.126706
v 0.502937 0.067672 0.297774
v 0.423789 -0.013088 0.302464
v 0.298426 0.257895 0.122017
v 0.219278 0.177135 0.126706
v 0.359423 -0.024697 0.364794
v 0.154913 0.165525 0.189037
v 0.423789 -0.013088 0.302464
vn -0.953400 -0.301800 -0.000000
vn -0.222400 0.702500 -0.676100
vn -0.222300 0.702500 -0.676100
vn 0.222400 -0.702500 -0.676100
vn 0.294900 -0.931800 0.211700
vn 0.000000 0.000000 1.000000
vn -0.294900 0.931800 0.211700
vn 0.324700 0.754600 -0.570200
vn 0.699800 -0.430300 -0.570200
vn 0.573500 -0.794000 0.201500
vn 0.266500 0.084400 0.960100
vn 0.012200 0.979400 0.201500
vn -0.618600 0.211700 -0.756700
vn 0.426400 -0.036300 -0.903800
vn 0.463100 0.043900 -0.885200
vn 0.444800 0.002900 -0.895600
vn 0.337700 -0.797900 -0.499300
vn -0.940800 -0.302600 -0.152700
vn -0.699700 0.635700 -0.326000
vn 0.218700 0.582500 -0.782900
vn 0.847000 0.489000 -0.208600
vn 0.867200 0.057500 0.494600
vn 0.867200 0.057600 0.494600
vn 0.867200 0.057600 0.494500
vn 0.224900 -0.446700 0.866000
vn -0.598500 -0.591400 0.540400
vn -0.968200 0.197200 0.153800
vn -0.018000 0.937600 -0.347300
vn 0.511600 0.852500 0.107500
vn 0.520500 0.501800 0.690900
vn -0.015600 0.105500 0.994300
vn -0.684200 -0.031700 0.728600
vn -0.004600 -0.887800 0.460200
vn 0.551800 -0.386000 -0.739200
vn 1.000000 0.000000 0.009900
vn 0.534100 0.386900 0.751700
vn -0.551800 0.386000 0.739200
vn -1.000000 -0.000000 -0.009900
vn -0.534100 -0.386900 -0.751700
vn 0.498100 0.041800 -0.866100
vn 0.914100 0.363700 -0.179500
vn 0.481900 0.737200 0.473600
vn -0.494100 0.735800 0.463100
vn -0.910300 0.363700 -0.197600
vn -0.477900 0.041800 -0.877400
vn -0.449500 0.290000 0.844900
vn -0.379400 -0.175400 0.908500
vn 0.180400 0.435800 0.881800
vn -0.932000 0.361900 -0.022300
vn 0.244700 -0.965900 -0.084300
vn 0.325900 -0.000000 0.945400
vn -0.967500 -0.237500 -0.086600
vn 0.650200 0.750300 0.119400
vn -0.401200 0.435800 -0.805700
vn 0.967500 0.237500 0.086600
vn -0.325900 -0.000000 -0.945400
vn 0.379400 0.175400 -0.908500
vn 0.223700 0.601300 -0.767100
vn 0.036000 0.398600 -0.916400
vn -0.767400 0.616200 -0.177000
vn 0.929500 0.251100 -0.270300
vn -0.021200 0.151200 -0.988300
vn -0.325700 0.560000 0.761800
vn -0.934400 0.246700 -0.256900
vn 0.920900 -0.152400 -0.358800
vn 0.603900 0.360300 0.711000
vn -0.215600 -0.965900 -0.143200
vn -0.553100 0.000000 0.833100
vn 0.587800 -0.245500 0.770800
vn -0.509100 -0.223700 0.831100
vn -0.507200 -0.459300 0.729200
vn 0.677700 0.075300 0.731500
vn -0.950700 0.307500 0.038900
vn 0.073100 -0.866000 -0.494600
vn 0.761600 -0.271700 0.588300
vn -0.989300 0.000000 -0.146200
vn 0.732900 0.680400 -0.006600
vn -0.192800 0.890200 -0.412800
vn -0.184700 0.475600 -0.860000
vn 0.911700 0.259100 -0.318800
vn -0.000000 -1.000000 0.000000
vn 0.000000 0.000000 -1.000000
vn 0.819800 0.000000 -0.572700
vn 0.819800 -0.000000 0.572700
vn -0.819800 0.000000 0.572700
vn -0.819800 -0.000000 -0.572700
vn 0.000000 0.693400 -0.720600
vn 0.550800 0.740600 -0.384800
vn 0.550800 0.740600 0.384800
vn 0.000000 0.693400 0.720600
vn -0.550900 0.740600 0.384800
vn -0.550900 0.740600 -0.384800
vn -0.297800 0.818800 0.490800
vn -0.057600 0.643400 0.763400
vn 0.459100 0.796300 -0.393900
vn -0.898600 0.379800 0.219600
vn 0.619700 -0.576400 0.532600
vn 0.755200 0.622600 -0.204900
vn -0.651800 0.000000 0.758400
vn 0.082000 -0.137600 -0.987100
vn -0.655600 -0.228800 -0.719600
vn 0.356200 -0.398100 -0.845400
vn 0.356200 -0.398200 -0.845400
vn -0.329200 -0.807000 -0.490300
usemtl Crystal
s 1
f 1//1 2//1 3//1
f 2//1 1//1 4//1
f 4//1 1//1 5//1
f 6//2 7//3 8//3
f 7//3 6//2 9//2
f 10//4 11//4 12//4
f 11//4 10//4 13//4
f 14//5 15//5 16//5
f 15//5 14//5 17//5
f 18//6 19//6 20//6
f 19//6 18//6 21//6
f 22//7 23//7 24//7
f 23//7 22//7 25//7
f 26//8 27//8 28//8
f 29//9 30//9 31//9
f 32//10 33//10 34//10
f 35//11 36//11 37//11
f 38//12 39//12 40//12
f 41//13 42//13 43//13
f 42//13 41//13 44//13
f 44//14 41//15 45//16
f 46//17 47//17 48//17
f 47//17 46//17 49//17
f 49//17 46//17 50//17
f 49//17 50//17 51//17
f 51//17 50//17 52//17
f 53//18 54//18 55//18
f 54//18 53//18 56//18
f 57//19 58//19 59//19
f 60//19 61//19 62//19
f 63//20 64//20 65//20
f 64//20 63//20 66//20
f 67//21 68//21 69//21
f 68//21 67//21 70//21
f 70//21 67//21 71//21
f 72//22 73//23 74//24
f 73//23 72//22 75//22
f 76//25 77//25 78//25
f 77//25 76//25 79//25
f 80//26 81//26 82//26
f 81//26 80//26 83//26
f 84//27 85//27 86//27
f 87//28 88//28 89//28
f 90//29 91//29 92//29
f 93//29 94//29 95//29
f 96//30 97//30 98//30
f 99//31 100//31 101//31
f 102//32 103//32 104//32
f 105//33 106//33 107//33
f 106//33 105//33 108//33
f 106//33 108//33 109//33
f 109//33 108//33 110//33
f 111//34 112//34 113//34
f 112//34 111//34 114//34
f 115//35 116//35 117//35
f 116//35 115//35 118//35
f 119//36 120//36 121//36
f 120//36 119//36 122//36
f 123//37 124//37 125//37
f 124//37 123//37 126//37
f 127//38 128//38 129//38
f 128//38 127//38 130//38
f 131//39 132//39 133//39
f 132//39 131//39 134//39
f 135//40 136//40 137//40
f 138//41 139//41 140//41
f 141//42 142//42 143//42
f 144//43 145//43 146//43
f 147//44 148//44 149//44
f 150//45 151//45 152//45
f 153//46 154//46 155//46
f 156//47 157//47 158//47
f 157//47 156//47 159//47
f 160//48 161//48 162//48
f 163//49 164//49 165//49
f 166//50 167//50 168//50
f 167//50 166//50 169//50
f 167//50 169//50 170//50
f 170//50 169//50 171//50
f 172//51 173//51 174//51
f 173//51 172//51 175//51
f 176//52 177//52 178//52
f 177//52 176//52 179//52
f 180//53 181//53 182//53
f 183//54 184//54 185//54
f 186//55 187//55 188//55
f 187//55 186//55 189//55
f 190//56 191//56 192//56
f 191//56 190//56 193//56
f 194//57 195//57 196//57
f 195//57 194//57 197//57
f 198//58 199//58 200//58
f 201//59 202//59 203//59
f 204//60 205//60 206//60
f 207//61 208//61 209//61
f 210//62 211//62 212//62
f 211//62 210//62 213//62
f 214//63 215//63 216//63
f 217//64 218//64 219//64
f 218//64 217//64 220//64
f 221//65 222//65 223//65
f 222//65 221//65 224//65
f 225//66 226//66 227//66
f 228//67 229//67 230//67
f 229//67 228//67 231//67
f 229//67 231//67 232//67
f 233//68 234//68 235//68
f 234//68 233//68 236//68
f 237//69 238//69 239//69
f 238//69 237//69 240//69
f 241//70 242//70 243//70
f 244//71 245//71 246//71
f 245//71 244//71 247//71
f 248//72 249//72 250//72
f 251//73 252//73 253//73
f 254//74 255//74 256//74
f 255//74 254//74 257//74
f 255//74 257//74 258//74
f 259//75 260//75 261//75
f 260//75 259//75 262//75
f 263//76 264//76 265//76
f 264//76 263//76 266//76
f 267//77 268//77 269//77
f 270//78 271//78 272//78
f 273//79 274//79 275//79
f 274//79 273//79 276//79
f 277//80 278//80 279//80
f 278//80 277//80 280//80
f 281//81 282//81 283//81
f 282//81 281//81 284//81
f 282//81 284//81 285//81
f 285//81 284//81 286//81
f 287//82 288//82 289//82
f 288//82 287//82 290//82
f 291//83 292//83 293//83
f 292//83 291//83 294//83
f 295//84 296//84 297//84
f 296//84 295//84 298//84
f 299//6 300//6 301//6
f 300//6 299//6 302//6
f 303//85 304//85 305//85
f 304//85 303//85 306//85
f 307//86 308//86 309//86
f 308//86 307//86 310//86
f 311//87 312//87 313//87
f 314//88 315//88 316//88
f 317//89 318//89 319//89
f 320//90 321//90 322//90
f 323//91 324//91 325//91
f 326//92 327//92 328//92
f 329//93 330//93 331//93
f 332//94 333//94 334//94
f 333//94 332//94 335//94
f 336//95 337//95 338//95
f 339//96 340//96 341//96
f 342//97 343//97 344//97
f 343//97 342//97 345//97
f 343//97 345//97 346//97
f 347//98 348//98 349//98
f 348//98 347//98 350//98
f 351//99 352//99 353//99
f 352//99 351//99 354//99
f 355//100 356//100 357//100
f 358//101 359//101 360//101
f 361//102 362//102 363//103
f 362//102 361//102 364//102
f 365//104 366//104 367//104
f 366//104 365//104 368//104
