# Blender v2.76 (sub 0) OBJ File: 'crystal.blend'
# www.blender.org
mtllib crystal.mtl
o instance_0.001_ID12
v 0.594661 0.000000 0.184943
v 0.438834 0.000000 0.169025
v 0.440877 0.000000 0.164657
v 0.349902 0.000000 0.238222
v 0.434397 0.000000 0.168113
v 0.651975 0.000000 0.376953
v 0.367745 -0.000000 0.321027
v 0.350702 0.000000 0.357468
v 0.366714 0.000000 0.411112
v 0.668845 0.000000 0.377827
v 0.750413 0.000000 0.503462
v 0.210046 0.000000 0.487574
v 0.280607 0.000000 0.394676
v 0.312268 0.000000 0.572237
v 0.278528 0.000000 0.618709
v 0.311081 0.000000 0.572597
v 0.655606 0.000000 0.619956
v 0.627053 0.000000 0.618476
v 0.750413 0.000000 0.503462
v 0.278528 0.000000 0.618709
v 0.624778 0.000000 0.729668
v 0.407863 0.000000 0.803891
vn -0.000000 -1.000000 0.000000
usemtl texture
s off
f 1//1 2//1 3//1
f 2//1 4//1 5//1
f 4//1 2//1 1//1
f 4//1 1//1 6//1
f 4//1 6//1 7//1
f 7//1 6//1 8//1
f 8//1 6//1 9//1
f 9//1 6//1 10//1
f 9//1 10//1 11//1
f 9//1 12//1 13//1
f 12//1 9//1 11//1
f 12//1 11//1 14//1
f 14//1 11//1 15//1
f 16//1 12//1 14//1
f 17//1 18//1 19//1
f 18//1 20//1 19//1
f 20//1 18//1 21//1
f 20//1 21//1 22//1
o instance_0_ID4
v 0.365684 0.126883 0.973518
v 0.473628 0.093688 0.873075
v 0.422450 0.139024 0.856569
v 0.473628 0.093688 0.873075
v 0.365684 0.126883 0.973518
v 0.421249 0.048352 0.885243
v 0.424020 0.127148 0.819082
v 0.473628 0.093688 0.873075
v 0.477055 0.067768 0.791259
v 0.422450 0.139024 0.856569
v 0.365684 0.126883 0.973518
v 0.422450 0.139024 0.856569
v 0.338442 0.121707 0.858537
v 0.365684 0.126883 0.973518
v 0.337700 0.065669 0.876258
v 0.421249 0.048352 0.885243
v 0.473628 0.093688 0.873075
v 0.424749 0.021878 0.801678
v 0.477055 0.067768 0.791259
v 0.421249 0.048352 0.885243
v 0.407863 0.000000 0.803891
v 0.424749 0.021878 0.801678
v 0.403185 0.029714 0.810334
v 0.624778 0.000000 0.729668
v 0.477055 0.067768 0.791259
v 0.522833 0.647578 0.870081
v 0.388451 0.123305 0.830627
v 0.313297 0.600702 0.934139
v 0.424020 0.127148 0.819082
v 0.338442 0.121707 0.858537
v 0.388451 0.123305 0.830627
v 0.343005 0.087191 0.749586
v 0.422450 0.139024 0.856569
v 0.424020 0.127148 0.819082
v 0.365684 0.126883 0.973518
v 0.338442 0.121707 0.858537
v 0.337700 0.065669 0.876258
v 0.421249 0.048352 0.885243
v 0.403185 0.029714 0.810334
v 0.424749 0.021878 0.801678
v 0.337700 0.065669 0.876258
v 0.344246 0.016149 0.719946
v 0.403185 0.029714 0.810334
v 0.278528 0.000000 0.618709
v 0.407863 0.000000 0.803891
v 0.344246 0.016149 0.719946
v 0.181055 0.619168 0.752961
v 0.343005 0.087191 0.749586
v 0.388451 0.123305 0.830627
v 0.313297 0.600702 0.934139
v 0.593359 0.220469 0.616730
v 0.624778 0.000000 0.729668
v 0.627053 0.000000 0.618476
v 0.522833 0.647578 0.870081
v 0.585514 0.279444 0.559206
v 0.520092 0.695015 0.649313
v 0.522833 0.647578 0.870081
v 0.395485 0.948768 0.820939
v 0.313297 0.600702 0.934139
v 0.403185 0.029714 0.810334
v 0.424020 0.127148 0.819082
v 0.388451 0.123305 0.830627
v 0.424749 0.021878 0.801678
v 0.477055 0.067768 0.791259
v 0.337700 0.065669 0.876258
v 0.343005 0.087191 0.749586
v 0.344246 0.016149 0.719946
v 0.338442 0.121707 0.858537
v 0.403185 0.029714 0.810334
v 0.343005 0.087191 0.749586
v 0.344246 0.016149 0.719946
v 0.388451 0.123305 0.830627
v 0.395485 0.948768 0.820939
v 0.181055 0.619168 0.752961
v 0.313297 0.600702 0.934139
v 0.181055 0.619168 0.752961
v 0.312268 0.000000 0.572237
v 0.278528 0.000000 0.618709
v 0.353812 0.159178 0.515016
v 0.384934 0.194228 0.472151
v 0.308862 0.677457 0.576928
v 0.384934 0.089063 0.472151
v 0.627053 0.000000 0.618476
v 0.695878 0.418513 0.622043
v 0.593359 0.220469 0.616730
v 0.655606 0.000000 0.619956
v 0.834898 0.346355 0.629247
v 0.585514 0.279444 0.559206
v 0.549069 0.248238 0.527115
v 0.541381 0.227571 0.531199
v 0.554224 0.302440 0.493294
v 0.695878 0.418513 0.622043
v 0.593359 0.220469 0.616730
v 0.639895 0.411761 0.541018
v 0.664396 0.436482 0.559708
v 0.632914 0.454452 0.497372
v 0.641049 0.449809 0.513479
v 0.308862 0.677457 0.576928
v 0.392688 0.282124 0.498129
v 0.384934 0.194228 0.472151
v 0.520092 0.695015 0.649313
v 0.541381 0.227571 0.531199
v 0.585514 0.279444 0.559206
v 0.395485 0.948768 0.820939
v 0.522833 0.647578 0.870081
v 0.520092 0.695015 0.649313
v 0.395485 0.948768 0.820939
v 0.308862 0.677457 0.576928
v 0.181055 0.619168 0.752961
v 0.384934 0.194228 0.472151
v 0.366714 0.103218 0.411112
v 0.384934 0.089063 0.472151
v 0.339788 0.142392 0.320908
v 0.337070 0.251174 0.311801
v 0.392688 0.282124 0.498129
v 0.326347 0.317776 0.275877
v 0.363917 0.657533 0.401741
v 0.304569 0.601936 0.202918
v 0.350702 0.000000 0.357468
v 0.366714 0.000000 0.411112
v 0.366714 0.103218 0.411112
v 0.353812 0.159178 0.515016
v 0.384934 0.089063 0.472151
v 0.164762 0.459324 0.372565
v 0.173991 0.476262 0.480693
v 0.311081 0.000000 0.572597
v 0.173991 0.476262 0.480693
v 0.071212 0.422967 0.526812
v 0.353812 0.159178 0.515016
v 0.312268 0.000000 0.572237
v 0.910955 0.310135 0.511782
v 0.655606 0.000000 0.619956
v 0.750413 0.000000 0.503462
v 0.834898 0.346355 0.629247
v 0.896023 0.622003 0.511008
v 0.695878 0.418513 0.622043
v 0.834898 0.346355 0.629247
v 0.554224 0.302440 0.493294
v 0.708971 0.418232 0.379906
v 0.620316 0.246969 0.375311
v 0.642427 0.446743 0.480572
v 0.632914 0.454452 0.497372
v 0.642333 0.449966 0.482825
v 0.644751 0.448815 0.479089
v 0.646340 0.155650 0.358077
v 0.620316 0.246969 0.375311
v 0.639028 0.149542 0.376281
v 0.609707 0.633648 0.235348
v 0.554224 0.302440 0.493294
v 0.516485 0.673389 0.417955
v 0.549069 0.248238 0.527115
v 0.392688 0.282124 0.498129
v 0.516485 0.673389 0.417955
v 0.363917 0.657533 0.401741
v 0.541381 0.227571 0.531199
v 0.549069 0.248238 0.527115
v 0.695878 0.418513 0.622043
v 0.681893 0.439833 0.573054
v 0.664396 0.436482 0.559708
v 0.726422 0.487430 0.544642
v 0.896023 0.622003 0.511008
v 0.728195 0.515128 0.502310
v 0.639895 0.411761 0.541018
v 0.681893 0.595211 0.573054
v 0.639895 0.595211 0.541018
v 0.664396 0.436482 0.559708
v 0.681893 0.439833 0.573054
v 0.641049 0.449809 0.513479
v 0.639895 0.411761 0.541018
v 0.664396 0.436482 0.559708
v 0.639895 0.595211 0.541018
v 0.641049 0.449809 0.513479
v 0.639895 0.411761 0.541018
v 0.641704 0.460050 0.497827
v 0.642333 0.449966 0.482825
v 0.642427 0.595211 0.480572
v 0.642427 0.446743 0.480572
v 0.641049 0.449809 0.513479
v 0.641704 0.460050 0.497827
v 0.632914 0.454452 0.497372
v 0.520092 0.695015 0.649313
v 0.308862 0.677457 0.576928
v 0.395485 0.948768 0.820939
v 0.164762 0.459324 0.372565
v 0.280607 0.000000 0.394676
v 0.056280 0.395561 0.351858
v 0.366714 0.103218 0.411112
v 0.366714 0.000000 0.411112
v 0.436410 0.888251 0.149692
v 0.304569 0.601936 0.202918
v 0.363917 0.657533 0.401741
v 0.304569 0.601936 0.202918
v 0.336525 0.447973 0.199351
v 0.326347 0.317776 0.275877
v 0.397790 0.562195 0.020311
v 0.384035 0.424489 0.107645
v 0.420888 0.260816 0.097692
v 0.326347 0.317776 0.275877
v 0.339788 0.142392 0.320908
v 0.337070 0.251174 0.311801
v 0.337070 0.251174 0.311801
v 0.326347 0.317776 0.275877
v 0.241218 0.408950 0.240955
v 0.336449 0.448098 0.199295
v 0.336525 0.447973 0.199351
v 0.353547 0.034485 0.336879
v 0.241218 0.408950 0.240955
v 0.165658 0.343760 0.198005
v 0.339788 0.142392 0.320908
v 0.337070 0.251174 0.311801
v 0.350702 0.000000 0.357468
v 0.353547 0.034485 0.336879
v 0.367745 -0.000000 0.321027
v 0.339788 0.142392 0.320908
v 0.173991 0.476262 0.480693
v 0.164762 0.459324 0.372565
v -0.021510 0.553253 0.402748
v 0.210046 0.000000 0.487574
v 0.071212 0.422967 0.526812
v -0.001538 0.373091 0.447188
v 0.311081 0.000000 0.572597
v 0.312268 0.000000 0.572237
v 0.311081 0.000000 0.572597
v 0.311894 -0.001433 0.572752
v 0.173991 0.476262 0.480693
v -0.021510 0.553253 0.402748
v 0.071212 0.422967 0.526812
v 0.678228 0.018125 0.378313
v 0.750413 0.000000 0.503462
v 0.668845 0.000000 0.377827
v 0.678444 0.018136 0.378637
v 0.910955 0.310135 0.511782
v 0.681962 0.025339 0.378507
v 0.847992 0.346073 0.387111
v 0.896023 0.622003 0.511008
v 0.834898 0.346355 0.629247
v 0.910955 0.310135 0.511782
v 0.708971 0.418232 0.379906
v 0.639028 0.149542 0.376281
v 0.620316 0.246969 0.375311
v 0.678724 0.196737 0.378338
v 0.750725 0.172138 0.382070
v 0.847992 0.346073 0.387111
v 0.681962 0.025339 0.378507
v 0.641704 0.460050 0.497827
v 0.642333 0.449966 0.482825
v 0.632914 0.454452 0.497372
v 0.642333 0.449966 0.482825
v 0.644751 0.448815 0.479089
v 0.642427 0.446743 0.480572
v 0.686956 0.595211 0.452161
v 0.642427 0.446743 0.480572
v 0.642427 0.595211 0.480572
v 0.644751 0.448815 0.479089
v 0.686956 0.455389 0.452161
v 0.644751 0.448815 0.479089
v 0.686956 0.455389 0.452161
v 0.708971 0.418232 0.379906
v 0.896023 0.622003 0.511008
v 0.728953 0.502954 0.484196
v 0.728195 0.515128 0.502310
v 0.678724 0.196737 0.378338
v 0.646340 0.155650 0.358077
v 0.639028 0.149542 0.376281
v 0.737343 0.239111 0.184994
v 0.629202 0.127410 0.300660
v 0.775016 0.296198 0.275346
v 0.594661 0.000000 0.184943
v 0.629202 0.017207 0.300660
v 0.651975 0.000000 0.376953
v 0.550359 0.578051 0.036526
v 0.651975 0.002261 0.376953
v 0.629202 0.127410 0.300660
v 0.646340 0.155650 0.358077
v 0.609707 0.633648 0.235348
v 0.436410 0.888251 0.149692
v 0.516485 0.673389 0.417955
v 0.609707 0.633648 0.235348
v 0.516485 0.673389 0.417955
v 0.436410 0.888251 0.149692
v 0.363917 0.657533 0.401741
v 0.728953 0.595211 0.484196
v 0.728195 0.515128 0.502310
v 0.728953 0.502954 0.484196
v 0.726422 0.595211 0.544642
v 0.726422 0.487430 0.544642
v 0.641049 0.449809 0.513479
v 0.728195 0.515128 0.502310
v 0.641704 0.460050 0.497827
v 0.726422 0.487430 0.544642
v 0.664396 0.436482 0.559708
v 0.681893 0.439833 0.573054
v 0.681893 0.439833 0.573054
v 0.726422 0.595211 0.544642
v 0.681893 0.595211 0.573054
v 0.726422 0.487430 0.544642
v 0.681893 0.595211 0.573054
v 0.684424 0.640211 0.512608
v 0.639895 0.595211 0.541018
v 0.684424 0.640211 0.512608
v 0.642427 0.595211 0.480572
v 0.639895 0.595211 0.541018
v -0.001538 0.373091 0.447188
v 0.280607 0.000000 0.394676
v 0.210046 0.000000 0.487574
v 0.056280 0.395561 0.351858
v 0.164762 0.459324 0.372565
v 0.056280 0.395561 0.351858
v -0.021510 0.553253 0.402748
v 0.436410 0.888251 0.149692
v 0.397790 0.562195 0.020311
v 0.304569 0.601936 0.202918
v 0.550359 0.578051 0.036526
v 0.420888 0.260816 0.097692
v 0.397790 0.562195 0.020311
v 0.495362 0.113569 0.143833
v 0.440877 0.000000 0.164657
v 0.436464 0.057584 0.149872
v 0.594661 0.000000 0.184943
v 0.338265 0.372158 0.027719
v 0.420888 0.260816 0.097692
v 0.495362 0.113569 0.143833
v 0.384035 0.424489 0.107645
v 0.379639 0.431724 0.104396
v 0.379639 0.431724 0.104396
v 0.336525 0.447973 0.199351
v 0.384035 0.424489 0.107645
v 0.336449 0.448098 0.199295
v 0.241218 0.408950 0.240955
v 0.336449 0.448098 0.199295
v 0.189781 0.502031 0.071269
v 0.353547 0.034485 0.336879
v 0.349902 0.000000 0.238222
v 0.367745 -0.000000 0.321027
v 0.166666 0.301617 0.102787
v 0.165658 0.343760 0.198005
v 0.189781 0.502031 0.071269
v 0.165658 0.343760 0.198005
v 0.241218 0.408950 0.240955
v -0.021510 0.553253 0.402748
v -0.001538 0.373091 0.447188
v 0.071212 0.422967 0.526812
v 0.678228 0.018125 0.378313
v 0.651975 0.000000 0.376953
v 0.651975 0.002261 0.376953
v 0.668845 0.000000 0.377827
v 0.681962 0.025339 0.378507
v 0.678444 0.018136 0.378637
v 0.678228 0.018125 0.378313
v 0.832376 0.177135 0.213993
v 0.629202 0.017207 0.300660
v 0.772793 0.165525 0.147076
v 0.678444 0.018136 0.378637
v 0.678228 0.018125 0.378313
v 0.651975 0.002261 0.376953
v 0.832376 0.177135 0.213993
v 0.681962 0.025339 0.378507
v 0.678444 0.018136 0.378637
v 0.750725 0.172138 0.382070
v 0.833749 0.257895 0.293268
v 0.896023 0.622003 0.511008
v 0.910955 0.310135 0.511782
v 0.847992 0.346073 0.387111
v 0.896023 0.622003 0.511008
v 0.847992 0.346073 0.387111
v 0.708971 0.418232 0.379906
v 0.750725 0.172138 0.382070
v 0.775016 0.296198 0.275346
v 0.678724 0.196737 0.378338
v 0.833749 0.257895 0.293268
v 0.644751 0.448815 0.479089
v 0.728953 0.502954 0.484196
v 0.686956 0.455389 0.452161
v 0.642333 0.449966 0.482825
v 0.728195 0.515128 0.502310
v 0.641704 0.460050 0.497827
v 0.728953 0.595211 0.484196
v 0.686956 0.455389 0.452161
v 0.686956 0.595211 0.452161
v 0.728953 0.502954 0.484196
v 0.684424 0.640211 0.512608
v 0.686956 0.595211 0.452161
v 0.642427 0.595211 0.480572
v 0.775016 0.296198 0.275346
v 0.853773 0.309438 0.191107
v 0.737343 0.239111 0.184994
v 0.629202 0.127410 0.300660
v 0.772793 0.165525 0.147076
v 0.629202 0.017207 0.300660
v 0.737343 0.239111 0.184994
v 0.436410 0.888251 0.149692
v 0.609707 0.633648 0.235348
v 0.550359 0.578051 0.036526
v 0.684424 0.640211 0.512608
v 0.726422 0.595211 0.544642
v 0.728953 0.595211 0.484196
v 0.681893 0.595211 0.573054
v 0.726422 0.595211 0.544642
v 0.684424 0.640211 0.512608
v -0.021510 0.553253 0.402748
v 0.056280 0.395561 0.351858
v -0.001538 0.373091 0.447188
v 0.550359 0.578051 0.036526
v 0.397790 0.562195 0.020311
v 0.436410 0.888251 0.149692
v 0.436464 0.057584 0.149872
v 0.440877 0.000000 0.164657
v 0.438834 0.000000 0.169025
v 0.495362 0.113569 0.143833
v 0.436464 0.057584 0.149872
v 0.420888 0.260816 0.097692
v 0.438834 0.000000 0.169025
v 0.434397 0.000000 0.168113
v 0.436464 0.057584 0.149872
v 0.338265 0.372158 0.027719
v 0.243483 0.314255 0.027003
v 0.495362 0.113569 0.143833
v 0.379639 0.431724 0.104396
v 0.338265 0.372158 0.027719
v 0.189781 0.502031 0.071269
v 0.336449 0.448098 0.199295
v 0.379639 0.431724 0.104396
v 0.189781 0.502031 0.071269
v 0.243483 0.314255 0.027003
v 0.349902 0.000000 0.238222
v 0.166666 0.301617 0.102787
v 0.434397 0.000000 0.168113
v 0.189781 0.502031 0.071269
v 0.166666 0.301617 0.102787
v 0.165658 0.343760 0.198005
v 0.853773 0.309438 0.191107
v 0.832376 0.177135 0.213993
v 0.772793 0.165525 0.147076
v 0.853773 0.309438 0.191107
v 0.833749 0.257895 0.293268
v 0.832376 0.177135 0.213993
v 0.833749 0.257895 0.293268
v 0.853773 0.309438 0.191107
v 0.775016 0.296198 0.275346
v 0.684424 0.640211 0.512608
v 0.728953 0.595211 0.484196
v 0.686956 0.595211 0.452161
v 0.853773 0.309438 0.191107
v 0.772793 0.165525 0.147076
v 0.737343 0.239111 0.184994
v 0.338265 0.372158 0.027719
v 0.243483 0.314255 0.027003
v 0.189781 0.502031 0.071269
v 0.189781 0.502031 0.071269
v 0.243483 0.314255 0.027003
v 0.166666 0.301617 0.102787
vn 0.556100 0.754600 0.348300
vn 0.540400 -0.430300 0.723000
vn 0.684800 0.702500 -0.193900
vn -0.201800 0.979400 0.003700
vn -0.225300 -0.794000 0.564600
vn 0.666200 -0.702500 0.250400
vn 0.320000 -0.152400 0.935100
vn -0.199200 0.931800 -0.303500
vn -0.970400 0.084400 0.226100
vn -0.223900 -0.931800 0.285800
vn -0.794800 -0.245500 0.555100
vn -0.794800 -0.245400 0.555100
vn 0.988300 0.151200 0.020200
vn 0.231200 0.251100 0.939900
vn -0.999100 0.000000 -0.041800
vn -0.735600 0.360300 0.573600
vn -0.809200 -0.000000 -0.587500
vn -0.051800 0.000000 0.998700
vn -0.773400 0.386900 0.502100
vn 0.295700 0.246700 -0.922900
vn 0.914100 0.398600 0.074300
vn -0.747500 0.560000 -0.357300
vn -0.958200 0.000000 0.286000
vn 0.867000 0.475600 -0.148500
vn 0.280400 0.259100 0.924300
vn 0.715500 -0.386000 0.582300
vn 0.141100 0.363700 0.920800
vn -0.715500 0.386000 -0.582300
vn 0.891800 0.175400 0.417100
vn -0.127000 0.237500 0.963000
vn -0.493400 0.737200 0.461700
vn -0.606500 0.000000 0.795100
vn -0.999100 0.000000 -0.041900
vn 0.209000 0.616200 -0.759300
vn 0.187500 -0.000000 -0.982300
vn -0.888500 0.435800 0.143400
vn -0.891800 -0.175400 -0.417100
vn 0.173000 0.489000 0.855000
vn 0.172900 0.489000 0.855000
vn -0.530400 0.057600 0.845800
vn 0.420500 0.890200 -0.175300
vn -0.619700 -0.271700 0.736300
vn 0.280300 0.259000 0.924300
vn -0.024100 0.680400 0.732500
vn 0.773400 -0.386900 -0.502100
vn 0.771500 -0.391100 -0.501800
vn 0.773400 -0.386800 -0.502200
vn 0.844500 0.041800 0.533900
vn 0.051800 -0.000000 -0.998700
vn -0.442000 0.735800 -0.513100
vn -0.537900 0.000000 -0.843000
vn -0.760300 0.643400 -0.089500
vn 0.958200 0.000000 -0.286000
vn 0.757000 0.601300 0.255600
vn -0.146500 0.750300 0.644700
vn 0.999100 0.000000 0.041800
vn 0.537900 0.000000 0.843000
vn -0.407500 0.740600 0.534300
vn -0.719900 0.693400 -0.030200
vn -0.707400 -0.459300 -0.537300
vn 0.000900 0.307500 -0.951500
vn -0.825400 0.290000 -0.484500
vn 0.127000 -0.237500 -0.963000
vn 0.781900 0.211700 -0.586400
vn 0.781900 0.211800 -0.586400
vn 0.773000 0.582500 0.251300
vn 0.773100 0.582300 0.251400
vn -0.128800 0.852500 0.506700
vn -0.874600 -0.446700 0.188500
vn -0.712100 0.501800 0.491100
vn -0.759200 0.075300 0.646500
vn 0.051700 0.000000 -0.998700
vn 0.773100 -0.386700 -0.502800
vn 0.503600 -0.807000 -0.308400
vn 0.496600 -0.813000 -0.303900
vn 0.829700 -0.398200 0.391200
vn 0.829700 -0.398100 0.391200
vn 0.896600 0.041800 -0.440800
vn 0.235500 0.363700 -0.901300
vn 0.173200 0.622600 0.763100
vn -0.442000 0.735800 -0.513000
vn 0.606500 0.000000 -0.795100
vn -0.361400 0.740600 -0.566500
vn -0.477900 0.818800 -0.318100
vn -0.730500 0.000000 -0.682900
vn 0.821700 0.435800 -0.367200
vn 0.719900 0.693400 0.030200
vn 0.361400 0.740600 0.566500
vn -0.809100 -0.223700 -0.543400
vn 0.061300 0.361900 -0.930200
vn 0.191900 -0.302600 -0.933600
vn 0.355000 0.635700 -0.685400
vn 0.347800 0.937600 -0.003500
vn -0.514900 -0.591400 -0.620500
vn -0.992800 0.105500 -0.057200
vn 0.746400 -0.228800 -0.624900
vn 0.982800 -0.137600 0.123200
vn 0.374300 0.796300 0.475100
vn 0.407500 0.740600 -0.534300
vn -0.181800 0.379800 -0.907000
vn -0.113100 0.197200 -0.973800
vn -0.699300 -0.031700 -0.714100
usemtl texture
s off
f 23//2 24//2 25//2
f 26//3 27//3 28//3
f 29//4 30//4 31//4
f 30//4 29//4 32//4
f 33//5 34//5 35//5
f 36//6 37//6 38//6
f 39//7 40//7 41//7
f 40//7 39//7 42//7
f 43//8 44//8 45//8
f 44//8 43//8 46//8
f 44//8 46//8 47//8
f 47//8 46//8 48//8
f 49//8 48//8 50//8
f 48//8 49//8 51//8
f 48//8 51//8 47//8
f 52//9 53//9 54//9
f 53//9 52//9 55//9
f 55//9 56//9 53//9
f 57//10 58//10 59//10
f 60//11 61//11 62//11
f 61//11 60//11 63//11
f 63//11 64//11 61//11
f 65//12 66//12 67//12
f 66//13 65//13 68//13
f 68//12 69//12 66//12
f 69//12 68//12 70//12
f 69//12 70//12 71//12
f 69//12 71//12 72//12
f 73//14 74//14 75//14
f 74//14 73//14 76//14
f 76//14 73//14 77//14
f 76//14 77//14 78//14
f 79//15 80//15 81//15
f 82//8 83//8 84//8
f 83//8 82//8 85//8
f 83//8 85//8 86//8
f 87//16 88//16 89//16
f 88//16 87//16 90//16
f 91//12 92//12 93//12
f 92//12 91//12 94//12
f 95//17 96//17 97//17
f 98//18 99//18 100//18
f 99//18 98//18 101//18
f 101//18 98//18 102//18
f 102//18 98//18 103//18
f 102//18 104//18 101//18
f 105//19 106//19 107//19
f 106//19 105//19 108//19
f 106//19 108//19 109//19
f 110//20 111//20 112//20
f 111//20 110//20 113//20
f 114//20 110//20 115//20
f 110//20 114//20 113//20
f 113//20 114//20 116//20
f 116//20 114//20 117//20
f 116//20 118//20 113//20
f 118//20 116//20 119//20
f 120//21 121//21 122//21
f 121//21 120//21 123//21
f 121//21 123//21 124//21
f 124//21 123//21 125//21
f 126//22 127//22 128//22
f 129//23 130//23 131//23
f 132//24 133//24 134//24
f 133//24 132//24 135//24
f 135//24 132//24 136//24
f 136//24 132//24 137//24
f 136//24 137//24 138//24
f 138//24 137//24 139//24
f 138//24 139//24 140//24
f 133//24 141//24 142//24
f 141//24 133//24 135//24
f 143//25 144//25 145//25
f 144//25 143//25 146//25
f 144//25 146//25 147//25
f 148//26 149//26 150//26
f 149//26 148//26 151//26
f 151//26 148//26 152//26
f 153//27 154//27 155//27
f 154//27 153//27 156//27
f 157//28 158//28 159//28
f 160//29 161//29 162//29
f 161//29 160//29 163//29
f 163//29 160//29 164//29
f 163//29 164//29 165//29
f 166//29 161//29 163//29
f 167//30 168//30 169//30
f 168//30 167//30 170//30
f 168//30 170//30 171//30
f 171//30 172//30 173//30
f 172//30 171//30 170//30
f 174//31 175//31 176//31
f 175//31 174//31 177//31
f 175//31 177//31 178//31
f 179//32 180//32 181//32
f 182//32 183//32 184//32
f 183//32 182//32 179//32
f 179//32 182//32 180//32
f 185//33 186//33 187//33
f 186//33 185//33 188//33
f 186//33 188//33 189//33
f 190//20 191//20 192//20
f 193//16 194//16 195//16
f 194//16 193//16 196//16
f 197//34 198//34 199//34
f 198//16 197//16 196//16
f 198//16 196//16 193//16
f 200//32 201//32 202//32
f 203//35 204//35 205//35
f 206//36 207//36 208//36
f 207//36 206//36 209//36
f 207//36 209//36 210//36
f 211//37 212//37 213//37
f 214//38 215//38 216//38
f 215//38 214//38 217//38
f 218//38 217//38 219//38
f 217//38 218//38 215//38
f 220//24 221//24 222//24
f 223//39 224//39 225//39
f 224//39 226//39 225//39
f 226//40 224//40 227//40
f 228//41 229//41 230//41
f 229//41 228//41 231//41
f 229//41 231//41 232//41
f 233//38 234//38 235//38
f 234//38 233//38 236//38
f 237//42 238//42 239//42
f 240//43 241//43 242//43
f 241//43 240//43 243//43
f 244//44 245//44 246//44
f 247//45 248//45 249//45
f 250//46 251//46 252//46
f 251//47 250//47 253//47
f 251//46 253//46 254//46
f 254//48 253//48 255//48
f 254//46 255//46 256//46
f 257//49 258//49 259//49
f 260//50 261//50 262//50
f 261//50 260//50 263//50
f 263//50 260//50 264//50
f 264//50 260//50 265//50
f 265//50 266//50 264//50
f 267//51 268//51 269//51
f 270//29 271//29 272//29
f 273//52 274//52 275//52
f 274//52 273//52 276//52
f 276//52 273//52 277//52
f 278//51 279//51 280//51
f 279//51 281//51 280//51
f 281//51 279//51 282//51
f 281//51 282//51 283//51
f 284//53 285//53 286//53
f 285//53 287//53 288//53
f 287//53 285//53 284//53
f 287//53 284//53 289//53
f 290//54 291//54 292//54
f 291//54 290//54 293//54
f 292//54 291//54 294//54
f 291//54 293//54 295//54
f 295//54 293//54 296//54
f 296//54 293//54 297//54
f 298//55 299//55 300//55
f 301//56 302//56 303//56
f 304//57 305//57 306//57
f 305//57 307//57 308//57
f 307//57 305//57 304//57
f 309//32 310//32 311//32
f 310//32 309//32 312//32
f 312//32 309//32 313//32
f 312//32 313//32 314//32
f 315//58 316//58 317//58
f 316//58 315//58 318//58
f 319//59 320//59 321//59
f 322//60 323//60 324//60
f 325//61 326//61 327//61
f 326//61 325//61 328//61
f 329//62 330//62 331//62
f 332//63 333//63 334//63
f 335//64 336//64 337//64
f 336//64 335//64 338//64
f 338//64 339//64 340//64
f 339//64 338//64 341//64
f 341//64 338//64 335//64
f 342//65 343//65 344//65
f 343//65 342//65 345//65
f 345//66 342//66 346//66
f 347//67 348//67 349//67
f 348//68 347//68 350//68
f 351//69 352//69 353//69
f 354//70 355//70 356//70
f 355//70 354//70 357//70
f 357//70 354//70 358//70
f 359//71 360//71 361//71
f 362//72 363//72 364//72
f 365//73 366//73 367//73
f 366//50 365//50 368//50
f 369//74 370//74 371//74
f 372//75 373//75 374//75
f 373//75 372//75 375//75
f 373//76 375//76 376//76
f 373//75 376//75 377//75
f 378//77 379//77 380//77
f 379//78 378//78 381//78
f 381//78 378//78 382//78
f 383//79 384//79 385//79
f 386//80 387//80 388//80
f 389//81 390//81 391//81
f 390//81 389//81 392//81
f 393//51 394//51 395//51
f 394//82 393//82 396//82
f 394//51 396//51 397//51
f 397//51 396//51 398//51
f 399//83 400//83 401//83
f 400//83 399//83 402//83
f 403//84 404//84 405//84
f 406//85 407//85 408//85
f 409//86 410//86 411//86
f 410//86 409//86 412//86
f 413//87 414//87 415//87
f 416//88 417//88 418//88
f 419//89 420//89 421//89
f 422//90 423//90 424//90
f 425//91 426//91 427//91
f 428//38 429//38 430//38
f 431//64 432//64 433//64
f 434//92 435//92 436//92
f 437//92 435//92 438//92
f 435//92 437//92 436//92
f 436//92 437//92 439//92
f 440//93 441//93 442//93
f 443//94 444//94 445//94
f 446//95 447//95 448//95
f 447//95 446//95 449//95
f 450//96 451//96 452//96
f 453//97 454//97 455//97
f 456//98 457//98 458//98
f 459//99 460//99 461//99
f 462//100 463//100 464//100
f 465//101 466//101 467//101
f 468//102 469//102 470//102
f 471//103 472//103 473//103
