# Blender v2.76 (sub 0) OBJ File: ''
# www.blender.org
mtllib io.mtl
o SketchUp.002_ID18.003
v 1.000000 -0.000000 0.000000
v 1.000000 1.000000 1.000000
v 1.000000 -0.000000 1.000000
v 1.000000 1.000000 0.000000
v 1.000000 1.000000 1.000000
v 0.000000 1.000000 0.000000
v 0.000000 1.000000 1.000000
v 1.000000 1.000000 0.000000
v 1.000000 -0.000000 1.000000
v 0.900000 0.100000 1.000000
v 0.500000 -0.000000 1.000000
v 1.000000 1.000000 1.000000
v 0.000000 -0.000000 1.000000
v 0.900000 0.900000 1.000000
v 0.500000 0.900000 1.000000
v 0.100000 0.900000 1.000000
v 0.100000 0.100000 1.000000
v 0.000000 1.000000 1.000000
v 0.500000 0.100000 1.000000
v 0.350000 0.100000 1.000000
v 1.000000 1.000000 0.000000
v 0.000000 -0.000000 0.000000
v 1.000000 -0.000000 0.000000
v 0.000000 1.000000 0.000000
v 0.900000 0.900000 1.000000
v 0.500000 0.100000 1.000000
v 0.900000 0.100000 1.000000
v 0.350000 0.100000 1.000000
v 0.100000 0.100000 1.000000
v 0.100000 0.900000 1.000000
v 0.500000 0.900000 1.000000
v 1.000000 -0.000000 0.000000
v 0.000000 -0.000000 1.000000
v 0.000000 -0.000000 0.000000
v 0.500000 -0.000000 1.000000
v 1.000000 -0.000000 1.000000
v 1.000000 -0.000000 1.000000
v 1.000000 -0.000000 0.000000
v 0.500000 -0.000000 1.000000
v 0.000000 -0.000000 1.000000
v 0.000000 -0.000000 0.000000
v 0.000000 -0.000000 0.000000
v 0.000000 1.000000 1.000000
v 0.000000 -0.000000 1.000000
v 0.000000 1.000000 0.000000
v 0.000000 1.000000 0.000000
v 0.000000 -0.000000 0.000000
v 0.000000 1.000000 1.000000
v 0.000000 -0.000000 1.000000
vn 1.000000 0.000000 0.000000
vn 0.000000 1.000000 0.000000
vn 0.000000 0.000000 1.000000
vn 0.000000 0.000000 -1.000000
vn 0.000000 -1.000000 0.000000
vn -1.000000 0.000000 -0.000000
usemtl material.004
s off
f 1//1 2//1 3//1
f 2//1 1//1 4//1
f 5//2 6//2 7//2
f 6//2 5//2 8//2
f 9//3 10//3 11//3
f 10//3 9//3 12//3
f 11//3 10//3 13//3
f 10//3 12//3 14//3
f 14//3 12//3 15//3
f 15//3 12//3 16//3
f 13//3 17//3 18//3
f 17//3 13//3 10//3
f 17//3 10//3 19//3
f 17//4 19//4 20//4
f 18//3 17//3 16//3
f 18//3 16//3 12//3
f 21//3 22//3 23//3
f 22//3 21//3 24//3
f 25//3 26//3 27//3
f 26//3 25//3 28//3
f 28//3 25//3 29//3
f 29//3 25//3 30//3
f 30//3 25//3 31//3
usemtl Color_000.005
f 32//5 33//5 34//5
f 33//5 32//5 35//5
f 35//5 32//5 36//5
f 37//2 38//2 39//2
f 39//2 38//2 40//2
f 41//2 40//2 38//2
f 42//1 43//1 44//1
f 43//1 42//1 45//1
f 46//6 47//6 48//6
f 49//6 48//6 47//6
