# Blender v2.76 (sub 0) OBJ File: ''
# www.blender.org
mtllib power.mtl
o SketchUp_ID2.003
v 1.000000 0.000000 0.000000
v 0.000000 -0.000000 1.000000
v 0.000000 0.000000 0.000000
v 0.500000 -0.000000 1.000000
v 1.000000 -0.000000 1.000000
v 1.000000 -0.000000 1.000000
v 1.000000 0.000000 0.000000
v 0.500000 -0.000000 1.000000
v 0.000000 -0.000000 1.000000
v 0.000000 0.000000 0.000000
v 0.000000 0.000000 0.000000
v 0.000000 1.000000 1.000000
v 0.000000 -0.000000 1.000000
v 0.000000 1.000000 0.000000
v 0.000000 1.000000 0.000000
v 0.000000 0.000000 0.000000
v 0.000000 1.000000 1.000000
v 0.000000 -0.000000 1.000000
v 1.000000 0.000000 0.000000
v 1.000000 1.000000 1.000000
v 1.000000 -0.000000 1.000000
v 1.000000 1.000000 0.000000
v 1.000000 1.000000 1.000000
v 0.000000 1.000000 0.000000
v 0.000000 1.000000 1.000000
v 1.000000 1.000000 0.000000
v 1.000000 -0.000000 1.000000
v 0.900000 0.100000 1.000000
v 0.500000 -0.000000 1.000000
v 1.000000 1.000000 1.000000
v 0.000000 -0.000000 1.000000
v 0.900000 0.900000 1.000000
v 0.500000 0.900000 1.000000
v 0.100000 0.900000 1.000000
v 0.100000 0.100000 1.000000
v 0.000000 1.000000 1.000000
v 0.500000 0.100000 1.000000
v 0.350000 0.100000 1.000000
v 1.000000 1.000000 0.000000
v 0.000000 0.000000 0.000000
v 1.000000 0.000000 0.000000
v 0.000000 1.000000 0.000000
v 0.900000 0.900000 1.000000
v 0.500000 0.100000 1.000000
v 0.900000 0.100000 1.000000
v 0.350000 0.100000 1.000000
v 0.100000 0.100000 1.000000
v 0.100000 0.900000 1.000000
v 0.500000 0.900000 1.000000
vn 0.000000 -1.000000 -0.000000
vn 0.000000 1.000000 0.000000
vn 1.000000 0.000000 0.000000
vn -1.000000 0.000000 0.000000
vn 0.000000 -0.000000 1.000000
usemtl base
f 1//1 2//1 3//1
f 2//1 1//1 4//1
f 4//1 1//1 5//1
f 6//2 7//2 8//2
f 8//2 7//2 9//2
f 10//2 9//2 7//2
f 11//3 12//3 13//3
f 12//3 11//3 14//3
f 15//4 16//4 17//4
f 18//4 17//4 16//4
f 19//3 20//3 21//3
f 20//3 19//3 22//3
f 23//2 24//2 25//2
f 24//2 23//2 26//2
f 27//5 28//5 29//5
f 28//5 27//5 30//5
f 29//5 28//5 31//5
f 28//5 30//5 32//5
f 32//5 30//5 33//5
f 33//5 30//5 34//5
f 31//5 35//5 36//5
f 35//5 31//5 28//5
f 35//5 28//5 37//5
f 35//5 37//5 38//5
f 36//5 35//5 34//5
f 36//5 34//5 30//5
f 39//5 40//5 41//5
f 40//5 39//5 42//5
f 43//5 44//5 45//5
f 44//5 43//5 46//5
f 46//5 43//5 47//5
f 47//5 43//5 48//5
f 48//5 43//5 49//5
