# Blender v2.76 (sub 0) OBJ File: ''
# www.blender.org
mtllib power.mtl
o SketchUp_ID2.003
v 1.000000 -0.000000 0.000000
v 1.000000 1.000000 1.000000
v 1.000000 -0.000000 1.000000
v 1.000000 1.000000 0.000000
v 1.000000 1.000000 1.000000
v 0.000000 1.000000 0.000000
v 0.000000 1.000000 1.000000
v 1.000000 1.000000 0.000000
v 1.000000 -0.000000 1.000000
v 0.900000 0.100000 1.000000
v 0.500000 -0.000000 1.000000
v 1.000000 1.000000 1.000000
v 0.000000 -0.000000 1.000000
v 0.900000 0.900000 1.000000
v 0.500000 0.900000 1.000000
v 0.100000 0.900000 1.000000
v 0.100000 0.100000 1.000000
v 0.000000 1.000000 1.000000
v 0.500000 0.100000 1.000000
v 0.350000 0.100000 1.000000
v 1.000000 1.000000 0.000000
v 0.000000 -0.000000 0.000000
v 1.000000 -0.000000 0.000000
v 0.000000 1.000000 0.000000
v 0.900000 0.900000 1.000000
v 0.500000 0.100000 1.000000
v 0.900000 0.100000 1.000000
v 0.350000 0.100000 1.000000
v 0.100000 0.100000 1.000000
v 0.100000 0.900000 1.000000
v 0.500000 0.900000 1.000000
v 1.000000 -0.000000 0.000000
v 0.000000 -0.000000 1.000000
v 0.000000 -0.000000 0.000000
v 0.500000 -0.000000 1.000000
v 1.000000 -0.000000 1.000000
v 1.000000 -0.000000 1.000000
v 1.000000 -0.000000 0.000000
v 0.500000 -0.000000 1.000000
v 0.000000 -0.000000 1.000000
v 0.000000 -0.000000 0.000000
v 0.000000 -0.000000 0.000000
v 0.000000 1.000000 1.000000
v 0.000000 -0.000000 1.000000
v 0.000000 1.000000 0.000000
v 0.000000 1.000000 0.000000
v 0.000000 -0.000000 0.000000
v 0.000000 1.000000 1.000000
v 0.000000 -0.000000 1.000000
vn 0.000000 -1.000000 0.000000
vn 0.000000 1.000000 0.000000
vn 1.000000 0.000000 0.000000
vn -1.000000 0.000000 -0.000000
vn 0.000000 0.000000 1.000000
vn 0.000000 0.000000 -1.000000
usemtl Color_000.003
s off
f 32//1 33//1 34//1
f 33//1 32//1 35//1
f 35//1 32//1 36//1
f 37//2 38//2 39//2
f 39//2 38//2 40//2
f 41//2 40//2 38//2
f 42//3 43//3 44//3
f 43//3 42//3 45//3
f 46//4 47//4 48//4
f 49//4 48//4 47//4
usemtl material.003
f 1//3 2//3 3//3
f 2//3 1//3 4//3
f 5//2 6//2 7//2
f 6//2 5//2 8//2
f 9//5 10//5 11//5
f 10//5 9//5 12//5
f 11//5 10//5 13//5
f 10//5 12//5 14//5
f 14//5 12//5 15//5
f 15//5 12//5 16//5
f 13//5 17//5 18//5
f 17//5 13//5 10//5
f 17//5 10//5 19//5
f 17//6 19//6 20//6
f 18//5 17//5 16//5
f 18//5 16//5 12//5
f 21//5 22//5 23//5
f 22//5 21//5 24//5
f 25//5 26//5 27//5
f 26//5 25//5 28//5
f 28//5 25//5 29//5
f 29//5 25//5 30//5
f 30//5 25//5 31//5
