# Blender v2.76 (sub 0) OBJ File: ''
# www.blender.org
mtllib vein.mtl
o Mesh2_Model.001
v 1.000000 -0.000000 1.000000
v 0.000000 -0.000000 1.000000
v 0.000000 0.000000 0.000000
v 1.000000 0.000000 0.000000
v 1.106700 0.500000 0.859113
v 0.847882 0.500000 -0.106813
v 1.145120 1.000000 0.718279
v 0.645119 1.000000 -0.147746
v 1.154310 1.500000 0.559338
v 0.447200 1.500000 -0.147769
v 1.131060 2.000000 0.385524
v 0.265038 2.000000 -0.114476
v 0.084811 2.500000 -0.030758
v -0.234962 2.000000 0.751550
v -0.259907 1.500000 0.559338
v 0.447200 1.500000 1.266440
v 0.279093 1.000000 1.218280
v -0.220907 1.000000 0.352254
v 0.140775 0.500000 1.117930
v -0.118044 0.500000 0.152006
v 0.631064 2.000000 1.251550
v 0.791917 2.500000 1.193990
v 1.050740 3.708650 0.228061
v -0.174008 3.708650 0.935168
vt 0.000000 -39.370098
vt 0.000000 0.000000
vt -39.370098 0.000000
vt 39.370098 -10.677700
vt 43.570900 9.773910
vt -0.000000 -10.677700
vt -39.370098 8.216630
vt 0.000000 8.216630
vt -33.823299 28.344900
vt -4.577750 11.412400
vt -43.947800 11.412400
vt -10.189700 -8.825150
vt -43.947800 24.327000
vt -4.577750 24.327000
vt -38.983601 44.223900
vt -7.661700 30.222099
vt -47.031799 30.222099
vt -13.048800 9.611350
vt -47.031799 43.071201
vt -7.661700 43.071201
vt -41.793499 63.054901
vt -8.335800 52.405899
vt -47.705898 52.405899
vt -13.846300 31.964500
vt -47.705898 61.209702
vt -8.335800 61.209702
vt -42.220100 81.336098
vt -6.783140 74.441902
vt -46.153198 74.441902
vt -12.338600 54.198700
vt -6.783140 72.058701
vt -2.286170 92.758698
vt -46.153198 72.058701
vt -9.120390 75.251900
vt 30.249701 75.251900
vt -2.718240 95.444099
vt -9.120390 73.937698
vt -13.841400 53.483799
vt 30.249701 73.937698
vt 22.806801 58.900101
vt 27.463301 79.492500
vt -16.563200 58.900101
vt 8.335800 62.719200
vt 47.705898 62.719200
vt 14.381200 82.947502
vt 47.705898 54.409401
vt 8.335800 54.409401
vt 41.685101 34.443199
vt 7.661700 41.795399
vt 47.031799 41.795399
vt 13.954600 62.209301
vt 47.031799 36.999100
vt 7.661700 36.999100
vt 40.887600 17.124201
vt 4.577750 20.590099
vt 43.947800 20.590099
vt 11.144700 41.155300
vt 43.947800 18.015200
vt 4.577750 18.015200
vt 38.028599 -2.102860
vt 39.370098 -0.000000
vt 5.984500 20.226200
vt 4.647410 20.574600
vt -33.332100 17.675699
vt -38.028599 -2.793660
vt 6.037950 17.675699
vt 6.037950 20.122000
vt 11.990100 40.873600
vt -33.332100 20.122000
vt -24.903999 35.951401
vt -31.011600 15.542600
vt 14.466000 35.951401
vt 14.466000 39.833500
vt 19.872299 60.499901
vt -24.903999 39.833500
vt -16.563200 54.621899
vt -22.072500 34.180099
vt 22.806801 54.621899
vt -6.037950 31.506500
vt -10.189700 10.950700
vt 33.332100 31.506500
vt 33.332100 8.340960
vt 36.228199 28.642300
vt -6.037950 8.340960
vt -14.466000 51.595001
vt -17.206699 30.973400
vt 24.903999 51.595001
vt 24.903999 25.951500
vt 28.346100 46.321602
vt -14.466000 25.951500
vt -22.806801 70.425697
vt -26.145800 49.840500
vt 16.563200 70.425697
vt -22.806801 68.525597
vt 16.563200 68.525597
vt -17.273600 88.764801
vt 9.120390 67.334503
vt -30.249701 67.334503
vt 3.651670 47.203499
vt -30.249701 86.845703
vt 9.120390 86.845703
vt -25.120600 107.005997
vt 5.910800 142.412003
vt -33.292702 94.689903
vt 1.191210 74.948097
vt -24.341700 111.654999
vt 3.497150 56.525600
vt 31.336000 111.654999
vt 6.842080 148.662003
vt 2.004120 81.136002
vt 45.991600 100.896004
vt 36.955502 146.076996
vt -2.273160 98.375298
vt 30.971500 78.641998
vt 24.341700 140.397995
vt -31.336000 140.397995
vt -3.497150 85.267998
vt -41.953701 146.044006
vt -47.037399 78.606697
vt -2.727480 98.340797
vt 46.153198 68.569000
vt 50.504501 88.911301
vt 6.783140 68.569000
vt 46.153198 70.857300
vt 6.783140 70.857300
vt 40.177502 50.744202
vt -39.370098 -39.370098
vn 0.000000 -1.000000 -0.000000
vn 0.000000 0.271200 0.962500
vn 0.978000 -0.208700 -0.000000
vn 0.939600 0.232100 -0.251800
vn 0.955600 -0.145600 -0.256100
vn 0.827100 0.296300 -0.477500
vn 0.853100 -0.172200 -0.492500
vn 0.680900 0.269500 -0.680900
vn 0.691600 -0.208300 -0.691600
vn 0.486200 0.233200 -0.842100
vn 0.475500 0.309300 -0.823600
vn -0.844300 -0.222700 -0.487400
vn -0.833500 -0.271600 -0.481200
vn -0.675900 0.293600 -0.675900
vn -0.688100 -0.230200 0.688100
vn -0.697100 0.167200 0.697200
vn -0.835100 -0.264800 0.482100
vn -0.857800 0.137900 0.495200
vn -0.924600 -0.289400 0.247700
vn -0.945100 0.206400 0.253200
vn -0.973200 -0.229800 -0.000000
vn 0.000000 0.290900 -0.956800
vn -0.248900 -0.274200 -0.928900
vn -0.245500 0.316500 -0.916300
vn -0.482300 -0.264000 -0.835300
vn -0.476300 0.304500 -0.824900
vn -0.680900 -0.269600 -0.680900
vn 0.247900 -0.288000 0.925000
vn 0.251000 0.244500 0.936600
vn 0.477300 -0.298000 0.826700
vn 0.483200 0.257200 0.836900
vn 0.676200 -0.292500 0.676200
vn 0.687700 -0.232400 0.687700
vn 0.846800 0.209300 0.488900
vn 0.845600 -0.215800 0.488200
vn 0.935400 0.075800 0.345500
vn 0.431600 0.505000 0.747500
vn -0.358100 -0.087100 0.929600
vn -0.938200 0.069900 -0.338800
vn -0.431600 0.505000 -0.747500
vn 0.339500 -0.070500 -0.938000
vn -0.483800 0.252100 0.838000
vn -0.489400 0.205200 0.847600
usemtl FrontColor.003
s 1
f 2/1/1 3/2/1 4/3/1
f 1/4/2 5/5/2 2/6/2
f 1/7/3 4/8/3 5/9/3
f 6/10/4 5/11/4 4/12/4
f 5/13/5 6/14/5 7/15/5
f 8/16/6 7/17/6 6/18/6
f 7/19/7 8/20/7 9/21/7
f 10/22/8 9/23/8 8/24/8
f 9/25/9 10/26/9 11/27/9
f 12/28/10 11/29/10 10/30/10
f 12/31/11 13/32/11 11/33/11
f 12/34/12 14/35/12 13/36/12
f 12/37/13 10/38/13 14/39/13
f 15/40/14 14/41/14 10/42/14
f 15/43/15 16/44/15 14/45/15
f 16/46/16 15/47/16 17/48/16
f 18/49/17 17/50/17 15/51/17
f 17/52/18 18/53/18 19/54/18
f 20/55/19 19/56/19 18/57/19
f 19/58/20 20/59/20 2/60/20
f 3/2/21 2/61/21 20/62/21
f 3/2/22 20/63/22 4/3/22
f 6/64/23 4/65/23 20/66/23
f 20/67/24 18/68/24 6/69/24
f 8/70/25 6/71/25 18/72/25
f 18/73/26 15/74/26 8/75/26
f 10/76/27 8/77/27 15/78/27
f 19/79/28 2/80/28 5/81/28
f 5/82/29 7/83/29 19/84/29
f 17/85/30 19/86/30 7/87/30
f 7/88/31 9/89/31 17/90/31
f 16/91/32 17/92/32 9/93/32
f 16/94/33 9/95/33 21/96/33
f 11/97/34 21/98/34 9/99/34
f 21/100/35 11/101/35 22/102/35
f 23/103/36 22/104/36 11/105/36
f 24/106/37 22/107/37 23/108/37
f 24/109/38 14/110/38 22/111/38
f 24/112/39 13/113/39 14/114/39
f 24/115/40 23/116/40 13/117/40
f 23/118/41 11/119/41 13/120/41
f 21/121/42 22/122/42 14/123/42
f 21/124/43 14/125/43 16/126/43
f 1/127/1 2/1/1 4/3/1
