# Blender v2.76 (sub 0) OBJ File: ''
# www.blender.org
mtllib vein.mtl
o Mesh1_Model
v 0.123588 0.100343 0.289180
v 0.124127 0.100343 0.321365
v 0.123839 0.100343 0.375541
v 0.137824 0.100343 0.232256
v 0.153717 0.100343 0.489463
v 0.087660 0.000000 0.207660
v 0.100000 0.000000 0.500000
v 0.116015 0.000000 0.621645
v 0.885446 0.000000 0.257965
v 0.823369 0.000000 0.142679
v 0.749351 0.000000 0.074511
v 0.665969 0.000000 0.065072
v 0.500000 0.000000 0.090000
v 0.378939 0.000000 0.099323
v 0.321678 0.000000 0.119491
v 0.176069 0.000000 0.095300
v 0.139491 0.000000 0.678322
v 0.139814 0.000000 0.730912
v 0.167660 0.000000 0.832340
v 0.265000 0.000000 0.907032
v 0.321678 0.000000 0.930508
v 0.378355 0.000000 0.953985
v 0.500000 0.000000 0.970000
v 0.600506 0.000000 0.870467
v 0.636166 0.000000 0.809390
v 0.673626 0.000000 0.774078
v 0.727714 0.000000 0.686472
v 0.810367 0.000000 0.660887
v 0.846974 0.000000 0.637834
v 0.862444 0.000000 0.614017
v 0.833934 0.100343 0.277534
v 0.779613 0.100343 0.176654
v 0.846439 0.100343 0.330433
v 0.807699 0.100343 0.598003
v 0.852587 0.100343 0.399392
v 0.826847 0.100343 0.546792
v 0.812709 0.100343 0.590290
v 0.804139 0.044240 0.397357
v 0.787341 0.100343 0.610824
v 0.691989 0.100343 0.640340
v 0.660552 0.044240 0.599745
v 0.767078 0.044240 0.566770
v 0.770504 0.044240 0.564613
v 0.593335 0.044240 0.708616
v 0.554937 0.044240 0.744812
v 0.518626 0.044240 0.807003
v 0.463497 0.044240 0.861599
v 0.405167 0.044240 0.853920
v 0.360982 0.044240 0.835618
v 0.316797 0.044240 0.817316
v 0.257566 0.044240 0.771867
v 0.241108 0.044240 0.711917
v 0.216646 0.044240 0.599136
v 0.200987 0.044240 0.480191
v 0.171948 0.044240 0.369467
v 0.172205 0.044240 0.321091
v 0.171763 0.044240 0.294704
v 0.181968 0.044240 0.253899
v 0.219199 0.044240 0.206582
v 0.330893 0.044240 0.225139
v 0.400307 0.044240 0.200690
v 0.511586 0.044240 0.192120
v 0.667852 0.044240 0.168650
v 0.704455 0.044240 0.172793
v 0.741110 0.044240 0.206551
v 0.788604 0.044240 0.294754
v 0.798860 0.044240 0.338137
v 0.780073 0.044240 0.535169
v 0.709197 -0.023020 0.561976
v 0.630917 0.100343 0.739257
v 0.592958 0.100343 0.775039
v 0.556952 0.100343 0.836709
v 0.480583 0.100343 0.912339
v 0.392617 0.100343 0.900758
v 0.292552 0.100343 0.859310
v 0.342585 0.100343 0.880034
v 0.215483 0.100343 0.800173
v 0.194402 0.100343 0.723384
v 0.169242 0.100343 0.607383
v 0.199011 0.100343 0.154493
v 0.326579 0.100343 0.175688
v 0.390305 0.100343 0.153242
v 0.506163 0.100343 0.144320
v 0.666970 0.100343 0.120167
v 0.725470 0.100343 0.126789
vt -4.865680 27.985001
vt -4.886890 26.717899
vt -4.875560 24.584999
vt -5.426150 30.226200
vt -6.051860 20.099899
vt 30.639500 2.480050
vt 28.329399 2.480050
vt 31.099800 -2.018040
vt 27.754900 5.618190
vt 19.501499 1.466140
vt 31.021200 1.466140
vt 14.172300 2.928370
vt 19.002701 2.928370
vt 27.110500 7.358130
vt 34.860100 29.214001
vt 32.416100 33.752800
vt 29.502001 36.436600
vt 26.219200 36.808201
vt 19.684999 35.826801
vt 14.918900 35.459702
vt 12.664500 34.665699
vt 6.931840 35.618099
vt 3.451170 31.194500
vt 3.937010 19.684999
vt 4.567510 14.895900
vt 5.491790 12.664500
vt 5.504490 10.594000
vt 6.600780 6.600780
vt 10.433100 3.660160
vt 12.664500 2.735880
vt 14.895900 1.811610
vt 19.684999 1.181100
vt 23.642000 5.099730
vt 25.045900 7.504340
vt 26.520700 8.894550
vt 28.650101 12.343600
vt 31.904200 13.350900
vt 33.345501 14.258500
vt 33.954498 15.196200
vt -14.349800 -21.299999
vt -9.194760 -21.299999
vt -9.477930 -16.801901
vt -13.988800 -16.801901
vt -17.987000 -14.938200
vt -20.127001 -14.938200
vt -20.410200 -19.436300
vt -31.799200 15.826600
vt -32.832001 28.443501
vt -33.324402 26.360901
vt -33.566399 23.646000
vt -32.553001 17.842899
vt -31.996401 16.130301
vt 18.368299 13.894600
vt 26.230000 11.550800
vt 31.027399 13.894600
vt 35.341900 4.603920
vt 34.394699 4.603920
vt 39.432701 -2.506980
vt -35.341900 1.770800
vt -34.111500 -2.727290
vt -34.394699 1.770800
vt -30.955999 -2.455000
vt -28.574900 -6.658610
vt -30.593901 -2.455000
vt -35.814701 -2.872230
vt -34.111500 -2.872230
vt -35.670601 1.700420
vt -27.031099 -7.272050
vt -23.867201 -11.639200
vt -25.230400 -7.272050
vt -29.067801 -5.944790
vt -19.782200 -10.135100
vt -23.176800 -5.944790
vt -31.239201 -15.759200
vt -30.121099 -15.759200
vt -38.113998 -9.443140
vt -17.353600 -7.555480
vt -25.760799 -3.496530
vt -31.400600 -7.555480
vt -20.572001 -11.016800
vt -23.297701 -11.016800
vt -26.003099 -15.351100
vt -30.212400 6.085460
vt -34.142200 6.085460
vt -34.425400 1.587370
vt -31.018999 1.587370
vt 29.502701 -3.468640
vt 33.893002 -3.468640
vt 34.142200 -0.559841
vt 30.212400 -0.559841
vt -30.334801 17.141199
vt -30.199900 17.056299
vt -26.006001 15.758100
vt -23.359699 11.471800
vt -21.847900 10.046800
vt -20.418400 7.598290
vt -18.247900 5.448840
vt -15.951500 5.751170
vt -14.211900 6.471720
vt -12.472300 7.192270
vt -10.140400 8.981620
vt -9.492440 11.341900
vt -8.529380 15.782000
vt -7.912870 20.464899
vt -6.769590 24.824100
vt -6.779710 26.728701
vt -6.762320 27.767599
vt -7.164080 29.374001
vt -8.629870 31.236900
vt -13.027300 30.506300
vt -15.760100 31.468901
vt -20.141199 31.806299
vt -26.293400 32.730301
vt -27.734501 32.567200
vt -29.177601 31.238199
vt -31.047400 27.765600
vt -31.451200 26.057600
vt -31.659000 23.726101
vt -30.711599 18.300400
vt 34.803299 2.402600
vt 34.394699 5.311400
vt 34.643902 2.402600
vt 24.152800 15.233200
vt 25.678200 12.723000
vt 26.897100 12.723000
vt 28.818600 10.810700
vt 20.425900 13.158000
vt 23.310801 10.810700
vt -30.134701 7.044260
vt -30.322201 13.103700
vt -31.286200 10.348000
vt 22.033001 10.334600
vt 27.070400 10.334600
vt 26.360701 13.243400
vt 21.783800 13.243400
vt -26.360701 -2.339960
vt -19.542999 -6.612130
vt -21.783800 -2.339960
vt -25.399300 -7.560300
vt -23.372499 -7.560300
vt -29.537001 -2.390010
vt -25.554100 -8.556410
vt -21.500700 -8.556410
vt -26.360701 -4.058320
vt -19.108900 -6.592980
vt -16.324400 -6.592980
vt -21.389200 -2.341710
vt -25.116100 -2.539430
vt -20.701500 -7.462470
vt -23.062300 -2.539430
vt -19.419100 -4.035310
vt -16.324400 -8.533410
vt -16.607599 -4.035310
vt -15.872300 -1.724190
vt -20.103800 -1.724190
vt -20.386999 -6.222280
vt -14.818000 -6.222280
vt 16.799900 7.158450
vt 19.854601 7.158450
vt 20.103800 10.067200
vt 15.872300 10.067200
vt 19.692101 10.303300
vt 16.607599 13.212100
vt 16.856800 10.303300
vt 24.866899 7.035420
vt 20.365400 10.513800
vt 22.789400 7.035420
vt 19.419100 11.387500
vt 16.607599 11.387500
vt 21.684900 8.821650
vt 25.116100 9.225750
vt 23.062300 9.225750
vt 24.866899 6.316950
vt 14.815100 -0.833665
vt 15.064300 -3.742460
vt 17.380600 -3.742460
vt 18.308201 -0.833665
vt 8.521390 -3.198090
vt 8.770570 -6.106880
vt 10.653500 -6.106880
vt 12.536400 -6.106880
vt 12.785500 -3.198090
vt 10.653500 -3.198090
vt 1.941230 -4.422000
vt 2.577260 -7.330800
vt 5.516590 -7.330800
vt 5.765770 -4.422000
vt -5.976580 -6.587510
vt -5.340550 -3.678720
vt -8.424140 -6.587510
vt -9.072040 -5.809580
vt -5.890190 -3.008600
vt -13.615500 -5.809580
vt -14.533700 -3.049110
vt -6.692570 -0.591101
vt -19.257000 -3.049110
vt -5.340550 -5.586400
vt -8.475580 -5.586400
vt -17.639900 -9.140770
vt 5.340550 8.377470
vt 4.617770 3.879380
vt 8.475580 8.377470
vt -1.218450 4.425600
vt -1.941230 8.923700
vt -5.765770 8.923700
vt -6.048950 4.425600
vt -8.521390 8.024260
vt -10.653500 8.024260
vt -12.785500 8.024260
vt -13.068700 3.526170
vt -10.653500 3.526170
vt -8.238220 3.526170
vt -14.532000 1.788600
vt -14.815100 6.286690
vt -18.308201 6.286690
vt -19.362499 1.788600
vt 9.020590 7.857930
vt 5.051640 3.457590
vt 13.693800 7.857930
vt 19.138000 6.315540
vt 14.455400 6.315540
vt 5.682730 2.181610
vt -14.455400 -2.142840
vt -19.138000 -2.142840
vt -26.647400 -4.933250
vt -27.297701 -2.456890
vt -19.688400 0.048257
vt -29.834000 0.048257
vt -31.005400 13.516300
vt -26.003799 10.127300
vt -27.109800 13.516300
vt -30.234501 1.749690
vt -28.578600 1.749690
vt -34.194000 3.978550
vt -29.885201 9.478190
vt -27.514799 9.478190
vt -31.005400 12.387000
vt -2.273450 25.202499
vt -7.364700 25.202499
vt -7.851310 22.293699
vt -3.393620 22.293699
vt 1.000490 -17.344900
vt 6.811710 -17.344900
vt 7.364700 -12.846800
vt 2.273450 -12.846800
vt 23.461700 -13.623100
vt 25.851900 -13.623100
vt 25.568701 -9.125030
vt 22.908800 -9.125030
vt 17.597401 -16.358400
vt 22.377701 -16.358400
vt 22.455400 -11.860300
vt 17.880600 -11.860300
vt 24.788099 -15.543600
vt 31.395599 -15.543600
vt 31.112400 -11.045500
vt 24.710400 -11.045500
vt 21.912701 -18.899500
vt 25.216499 -18.899500
vt 24.513700 -14.401400
vt 22.195900 -14.401400
vt -2.280100 -17.875000
vt -2.982840 -22.373100
vt 0.978806 -22.373100
vt 0.617809 -17.875000
vt 1.661720 29.135900
vt 2.280100 32.044701
vt -0.617809 32.044701
vt -0.300143 29.135900
vt -22.195900 27.318001
vt -24.513700 27.318001
vt -23.895399 24.409201
vt -22.445101 24.409201
vt -24.710400 22.751301
vt -31.112400 22.751301
vt -30.863199 19.842501
vt -24.642000 19.842501
vt -17.880600 23.860100
vt -22.455400 23.860100
vt -22.523800 20.951300
vt -18.129801 20.951300
vt -22.908800 20.138000
vt -25.568701 20.138000
vt -25.319500 17.229200
vt -22.422100 17.229200
vt 13.671100 27.675699
vt 13.988800 30.584400
vt 9.477930 30.584400
vt 9.727120 27.675699
vt 18.122801 25.139500
vt 19.877899 25.139500
vt 20.127001 28.048300
vt 20.821199 21.046000
vt 23.161900 21.046000
vt 25.415800 23.765900
vt 26.649500 -7.927010
vt 32.278301 -7.927010
vt 31.005400 -3.428920
vt 27.109800 -3.428920
vt -27.750799 1.338360
vt -24.807301 1.338360
vt -15.440800 3.550930
vt -9.020590 -3.856930
vt -13.693800 -3.856930
vt -22.825100 -6.897480
vt -17.788099 -8.804600
vt -8.592500 -5.331930
vt -22.294701 -8.804600
vt 4.617770 4.952140
vt 8.758760 4.952140
vt 17.780500 9.939620
vt 10.560000 0.844024
vt 12.630500 0.844024
vt 20.062401 4.840680
vt 17.907101 9.100800
vt 10.857000 4.463810
vt 22.543900 9.100800
vt 9.598830 7.051640
vt 12.014100 7.051640
vt 20.847799 12.668200
vt 27.970800 4.355780
vt 24.570700 4.355780
vt 14.882500 0.391001
vn 0.773300 -0.632100 -0.049000
vn -0.000000 -1.000000 0.000000
vn 0.721600 -0.677500 -0.142600
vn 0.784500 -0.486500 0.384600
vn 0.852000 -0.478200 0.213100
vn 0.950600 -0.307800 -0.040100
vn 0.888500 -0.438200 -0.136400
vn 0.884200 -0.452400 -0.116400
vn 0.000000 1.000000 0.000000
vn -0.773300 -0.478200 0.416400
vn -0.897900 -0.409000 0.163000
vn -0.819400 -0.481400 0.311300
vn -0.883700 -0.446000 0.141900
vn 0.939200 -0.334600 0.076900
vn 0.885300 -0.465000 0.002400
vn 0.810300 -0.569900 -0.136100
vn 0.165500 -0.950500 0.262800
vn 0.627100 -0.739800 0.243800
vn -0.642200 -0.419200 -0.641700
vn -0.508000 -0.463100 -0.726200
vn -0.366300 -0.481400 -0.796300
vn -0.728400 -0.439200 -0.525900
vn -0.737100 -0.543000 -0.402200
vn -0.897600 -0.381100 -0.221600
vn -0.765400 -0.586600 -0.264800
vn -0.524500 -0.780300 -0.340700
vn -0.971300 -0.229600 -0.062700
vn -0.946400 -0.322800 0.009100
vn -0.602800 -0.515500 -0.609100
vn -0.529300 -0.502700 -0.683500
vn 0.451700 -0.675100 0.583300
vn -0.024000 -0.612000 0.790500
vn 0.404600 -0.650700 0.642600
vn 0.836800 -0.475100 0.272000
vn 0.927000 -0.338400 0.161900
vn -0.656800 0.598000 -0.459400
vn -0.024000 -0.612100 0.790400
vn 0.594200 -0.654200 0.468000
vn 0.586400 -0.653900 0.478100
vn -0.716800 -0.473200 -0.512200
vn -0.723000 -0.455100 -0.519800
vn -0.642700 -0.567800 -0.514300
vn -0.690200 -0.486200 -0.535900
vn -0.660800 -0.542700 -0.518400
vn -0.692800 -0.481400 -0.537000
vn -0.272900 -0.518500 -0.810400
vn 0.230900 -0.690400 0.685600
vn 0.598000 -0.653900 0.463500
vn 0.600000 -0.654100 0.460600
vn 0.550500 -0.717900 0.426200
vn 0.638900 -0.585900 0.498500
vn -0.195800 -0.653900 0.730800
vn -0.378300 -0.653900 0.655200
vn -0.290600 -0.650700 0.701500
vn -0.615500 -0.670600 0.414000
vn -0.732300 -0.650700 0.201000
vn -0.770700 -0.614900 0.167200
vn -0.890900 -0.438800 0.117300
vn -0.765000 -0.627500 0.144700
vn -0.717700 -0.679700 0.151100
vn -0.607300 -0.777600 0.162900
vn 0.719500 -0.498100 -0.484000
vn 0.719500 -0.498100 -0.483900
vn 0.846900 -0.478200 -0.232500
vn 0.438300 -0.481400 -0.759100
vn 0.336100 -0.478200 -0.811400
vn 0.226900 -0.481400 -0.846700
vn 0.877400 -0.440500 -0.190300
vn 0.873300 -0.453900 -0.177000
vn 0.915900 -0.368900 -0.158100
vn 0.903100 -0.405000 -0.142700
vn -0.784800 -0.611100 0.103300
vn -0.880000 -0.471800 0.054400
vn -0.512200 -0.758400 -0.403000
vn -0.827300 -0.416600 -0.376900
vn -0.961400 -0.134000 -0.240400
vn -0.827300 -0.416600 -0.377000
vn -0.596800 -0.650700 -0.469600
vn 0.124500 -0.650700 -0.749100
vn -0.143900 -0.478200 0.866400
vn 0.291800 -0.478200 0.828400
vn 0.180800 -0.481400 0.857700
vn 0.099000 -0.478400 0.872500
vn 0.015900 -0.481400 0.876400
vn -0.360600 -0.497000 0.789300
vn -0.595000 -0.478200 0.646000
vn 0.308600 -0.669600 -0.675600
vn 0.514400 -0.650700 -0.558600
vn -0.013800 -0.653900 -0.756400
vn -0.085600 -0.650900 -0.754300
vn -0.156100 -0.653900 -0.740300
vn -0.252300 -0.650700 -0.716200
vn 0.668600 -0.650700 -0.360000
vn 0.707300 -0.653900 -0.268700
vn 0.775800 -0.618700 -0.123700
vn 0.690200 -0.478200 0.543100
vn -0.686100 -0.727500 0.001700
vn -0.998300 -0.058600 0.002500
vn -0.709900 -0.687200 0.154000
vn -0.615200 -0.771700 0.161400
vn 0.911300 -0.396300 -0.112200
vn 0.858600 -0.483300 -0.171300
usemtl FrontColor
s 1
f 1/1/1 2/2/2 3/3/3
f 3/3/2 2/2/2 1/1/2 4/4/2 5/5/2
f 4/6/4 1/7/5 6/8/4
f 1/9/6 7/10/6 6/11/6
f 8/12/7 7/13/8 1/14/1
f 9/15/9 10/16/9 11/17/9 12/18/9 13/19/9 14/20/9 15/21/9 16/22/9 6/23/9 7/24/9 8/25/9 17/26/9 18/27/9 19/28/9 20/29/9 21/30/9 22/31/9 23/32/9 24/33/9 25/34/9 26/35/9 27/36/9 28/37/9 29/38/9 30/39/9
f 10/40/10 9/41/11 31/42/12 32/43/10
f 33/44/13 31/45/12 9/46/11
f 34/47/2 31/48/2 33/49/2 35/50/2 36/51/2 37/52/2
f 34/53/14 38/54/15 31/55/16
f 34/56/17 39/57/18 38/58/18
f 34/59/19 28/60/20 39/61/21
f 37/62/22 28/63/20 34/64/19
f 29/65/23 28/66/20 37/67/22
f 36/68/24 29/69/23 37/70/22
f 35/71/25 29/72/23 36/73/24
f 30/74/26 29/75/23 35/76/25
f 30/77/27 35/78/28 9/79/11
f 35/80/28 33/81/13 9/82/11
f 40/83/29 39/84/21 28/85/20 27/86/30
f 41/87/31 42/88/32 39/89/32 40/90/31
f 43/91/2 42/92/2 41/93/2 44/94/2 45/95/2 46/96/2 47/97/2 48/98/2 49/99/2 50/100/2 51/101/2 52/102/2 53/103/2 54/104/2 55/105/2 56/106/2 57/107/2 58/108/2 59/109/2 60/110/2 61/111/2 62/112/2 63/113/2 64/114/2 65/115/2 66/116/2 67/117/2 38/118/2 68/119/2
f 43/120/33 39/121/32 42/122/32
f 39/123/34 43/124/34 68/125/34
f 38/126/18 39/127/18 68/128/35
f 69/129/36 39/130/37 42/131/37
f 44/132/38 41/133/31 40/134/31 70/135/39
f 40/136/29 25/137/40 70/138/41
f 26/139/42 25/140/40 40/141/29
f 27/142/30 26/143/42 40/144/29
f 25/145/40 24/146/43 70/147/41
f 70/148/41 24/149/43 71/150/44
f 71/151/44 24/152/43 72/153/45
f 73/154/46 72/155/45 24/156/43 23/157/46
f 47/158/47 46/159/48 72/160/49 73/161/47
f 45/162/50 72/163/49 46/164/48
f 44/165/38 72/166/49 45/167/50
f 71/168/51 72/169/49 44/170/38
f 70/171/39 71/172/51 44/173/38
f 74/174/52 48/175/52 47/176/47 73/177/47
f 75/178/53 50/179/53 49/180/54 48/181/52 74/182/52 76/183/54
f 77/184/55 51/185/55 50/186/53 75/187/53
f 51/188/55 77/189/55 52/190/56
f 52/191/57 77/192/57 53/193/57
f 53/194/58 77/195/59 54/196/60
f 77/197/59 78/198/61 54/199/60
f 77/200/62 19/201/63 78/202/64
f 19/203/63 77/204/62 75/205/65 20/206/65
f 75/207/65 76/208/66 74/209/67 22/210/67 21/211/66 20/212/65
f 22/213/67 74/214/67 73/215/46 23/216/46
f 78/217/68 19/218/69 79/219/70
f 5/220/71 79/221/70 19/222/69
f 79/223/72 5/224/72 57/225/72
f 57/226/73 5/227/73 4/228/73
f 80/229/74 57/230/74 4/231/74
f 58/232/75 57/233/76 80/234/77
f 59/235/78 58/236/75 80/237/77
f 80/238/79 81/239/79 60/240/79 59/241/79
f 16/242/80 15/243/80 81/244/80 80/245/80
f 15/246/81 14/247/82 82/248/82 81/249/81
f 14/250/82 13/251/83 83/252/83 82/253/82
f 13/254/83 12/255/84 84/256/84 83/257/83
f 12/258/84 11/259/85 85/260/85 84/261/84
f 85/262/85 11/263/85 10/264/86 32/265/86
f 64/266/87 85/267/87 32/268/88 65/269/88
f 84/270/89 85/271/87 64/272/87 63/273/89
f 83/274/90 84/275/89 63/276/89 62/277/90
f 82/278/91 83/279/90 62/280/90 61/281/91
f 81/282/92 82/283/91 61/284/91 60/285/92
f 65/286/93 32/287/93 31/288/16 66/289/94
f 67/290/95 66/291/94 31/292/16
f 38/293/15 67/294/95 31/295/16
f 6/296/4 16/297/96 80/298/96 4/299/4
f 57/300/97 55/301/97 79/302/98
f 57/107/97 56/106/2 55/105/97
f 78/303/99 79/304/99 55/305/99
f 54/306/60 78/307/61 55/308/100
f 19/309/69 18/310/101 5/311/71
f 18/312/101 17/313/102 5/314/71
f 5/315/71 17/316/102 3/317/3
f 17/318/102 8/319/7 3/320/3
f 1/321/1 3/322/3 8/323/7
